<svg id="Layer_1" data-name="Layer 1" xmlns="http://www.w3.org/2000/svg" width="201.4mm" height="188.7mm" viewBox="0 0 570.91 534.89"><defs><style>.cls-1{fill:#1d1d1b;}.cls-2{fill:#010101;}</style></defs><title>Artboard 19</title><rect class="cls-1" x="186.32" y="13.28" width="273.4" height="204.82" rx="29.91"/><rect class="cls-1" x="288.97" y="323.39" width="273.4" height="204.82" rx="29.91"/><path class="cls-2" d="M71,130.76c-2.65-.26-22.76,4.75-22.76,4.75s-9.71,17.33-11,21.55-7.94,35.78-10.46,43.37-6.1,16.81-12.53,18.79,1.34,22.26,1.34,22.26l20,8s13.15-5.31,15-6,14.36-9.07,14.36-9.07L84,141S73.62,131,71,130.76Z"/><path class="cls-2" d="M81.55,123.48c11-5,8-8,21-10,3.94-.61,22.24,6,26.24,6.83.51.11,29,8.41,29,8.41a11.52,11.52,0,0,1,8.37,5.52c2,3.39,7.06,6.73,8.35,11.24,2,7-4,9-5,9s-25.88,2.2-33.08,2.83a11.46,11.46,0,0,1-3.78-.3c-6.28-1.56-26.3-6.53-27.14-6.53S89,149,79.89,148.09a11.49,11.49,0,0,1-9.19-6.31h0a11.52,11.52,0,0,1,5.15-15.45Z"/><path class="cls-2" d="M171,193.86c0,14.27-7.16,26.16-14.06,36.88-10.44,16.19-24.25,28-43.34,28-18.73,0-32.89-9.93-43.36-25.62-7.26-10.87-14-24.62-14-39.28,0-35.84,25.7-64.89,57.4-64.89S171,158,171,193.86Z"/><path class="cls-2" d="M90.66,276.58c-3.86-7-50,3.5-53.19,6.13s-23.73,14-23.73,52.62V487.05l36.05,65.78h94l48.27-14-5-132.42,18-96.47s-12.3-34.2-23.88-34.2S90.66,276.58,90.66,276.58Z"/><path class="cls-2" d="M197.59,305.56l33.87,32.73,46.26-53.07H302.5l-47.09,88.45S230,400.29,213.47,385.25,151.54,338,151.54,338l-7.74-28.83,10.84-32.82,31,6.4Z"/><path class="cls-2" d="M284,304.43l7.47,3.38a8.62,8.62,0,0,0,2,.63c3.53.65,14.91,2.48,18.79-.21,4.62-3.19,0,1.07,2.77-5.85s-1.38-8-.46-11.7,2.77-5.32,1.39-8,0-5.86,2.3-11.71c1.08-2.74.14-5.6-1.17-7.86a8.71,8.71,0,0,0-7.56-4.37H301.2s-6,1.06.47-20.75c4.27-14.42-.13-14.79-3.6-13.38a8.8,8.8,0,0,0-4.56,4.41c-.84,1.77-2,4.45-3.4,7.91-1.23,3.15-2.3,8.5-7.37,19.15-3.47,7.27-3.47,6.47-5.08,13.3s0,9.82.35,10.79a8.6,8.6,0,0,1,.34,3.35l-.54,6.8a15,15,0,0,0,.2,3.84l.49,2.71A10.14,10.14,0,0,0,284,304.43Z"/><path class="cls-2" d="M90.89,241.14S88.67,280.37,82,290s26,9.61,26,9.61l29.66-4s-5.94-13.61-6.68-28a157.16,157.16,0,0,0-3.7-26.42Z"/><path class="cls-2" d="M67.74,278.21a2,2,0,0,0-2-2.42c-7.72.33-31.49,2.5-43.64,16.64C9.6,307,2,340.09,0,349.31a2,2,0,0,0,1.9,2.43H6.55l44.31.67a1.94,1.94,0,0,0,1.92-1.58Z"/><path class="cls-2" d="M142.84,279.17a2,2,0,0,1,1.14-2.93c7.42-2.19,30.65-7.86,46.48,1.62,16.32,9.77,33.61,38.7,38.25,46.83a2,2,0,0,1-1.06,2.92l-4.39,1.49-41.86,15a1.91,1.91,0,0,1-2.3-.88Z"/><rect class="cls-1" x="467.59" y="32.18" width="92.56" height="185.43" rx="12"/></svg>
