<svg id="Layer_1" data-name="Layer 1" xmlns="http://www.w3.org/2000/svg" xmlns:xlink="http://www.w3.org/1999/xlink" width="210mm" height="297mm" viewBox="0 0 595.28 841.89"><defs><style>.cls-1{fill:none;}.cls-2{opacity:0.1;}.cls-3{fill:#f2f6e4;}.cls-4{fill:#cde1ac;opacity:0.3;}.cls-5{fill:#f8bdaa;stroke:#e0e47b;stroke-miterlimit:10;opacity:0.2;}.cls-6{clip-path:url(#clip-path);}.cls-7{clip-path:url(#clip-path-2);}.cls-8{fill:#1d1d1b;}</style><clipPath id="clip-path"><rect class="cls-1" x="54.81" y="84" width="486.25" height="140" rx="12"/></clipPath><clipPath id="clip-path-2"><rect class="cls-1" x="49.81" y="79" width="496.25" height="150"/></clipPath></defs><title>Artboard 1</title><g class="cls-2"><rect class="cls-3" x="2.65" y="29.42" width="592.75" height="846.98"/></g><path class="cls-4" d="M353,602.38C217.6,544.88,133.77,466.14,147,407.57c6.55-28.93,35.57-47.52,81.89-77.17C261.31,309.65,376,236.21,423,263c99.56,56.75-149.42,538.67-101.74,560.71,39,18,275.53-272,213.89-339.4-50-54.67-333.58,144.23-368.23,103.21-42.12-49.87,348.64-369.16,292.3-442.61-21.32-27.81-105-13.58-272.45,14.88-55.33,9.4-102.18,19.7-138,28.36"/><ellipse class="cls-5" cx="184.75" cy="666.38" rx="82.88" ry="81.6"/><g class="cls-6"><g class="cls-7"><image width="1035" height="314" transform="translate(49.44 78.72) scale(0.48)" xlink:href="Artboard%2011.png"/></g></g><path class="cls-8" d="M333.77,180c0,.62-.21.94-.64.94a4.48,4.48,0,0,0-.83-.42,8.14,8.14,0,0,0-2.9-.3h-1.69c-.61,0-1,.1-1.13.28a2.89,2.89,0,0,0-.36,1.28c-.09.66-.23,1.64-.43,2.94a98.65,98.65,0,0,0-.72,12.26c0,3.23.35,5.4,1.05,6.53,0,.35-.13.53-.38.53-1.32,0-2.15-.75-2.51-2.25a19.21,19.21,0,0,1-.22-3.75c0-2.8.06-4.92.18-6.34,0-.68.17-2.25.42-4.73.2-2,.3-3.55.3-4.72q0-2.15,0-1.05,0-.57-.48-.57a11.13,11.13,0,0,0-2,.27,11.88,11.88,0,0,1-2,.26,1.86,1.86,0,0,1-1.95-1.2c.25-.42,2.12-.85,5.59-1.27a62.55,62.55,0,0,1,6.34-.49Q333.77,178.22,333.77,180Z"/><path class="cls-8" d="M354.62,203.23v.19a.7.7,0,0,1-.64.37c-.35,0-.58-.06-.68-.19q-.3-1.53-5.07-4.89c-3.19-2.24-5.34-3.36-6.47-3.36h-2.14v2.33a20,20,0,0,0,.27,2.25,7.25,7.25,0,0,0,.39,2.06,4.92,4.92,0,0,0,.65.94c0,.57-.32.86-1,.86a1.88,1.88,0,0,1-1.65-.79q-.57-.78-.57-7.35c0-.34-.43-.66-1.31-.93s-1.31-.6-1.31-1q0-.83,2.4-1.5a24.45,24.45,0,0,0,.34-3.6c.1-1.87.17-3.08.22-3.64,0-.27.14-1,.34-2.25a10.29,10.29,0,0,0,.22-2.28,2.34,2.34,0,0,0-1-.12q-.81,0-.81-.63a.91.91,0,0,1,.75-1l1.09-.3a2.53,2.53,0,0,1,.49-.82,1.77,1.77,0,0,1,.6-.12,1.23,1.23,0,0,1,.84.42,1.24,1.24,0,0,0,.77.41,3.26,3.26,0,0,0,.53-.06,4.39,4.39,0,0,1,.52-.05,13.29,13.29,0,0,1,7,1.72,6.47,6.47,0,0,1,3.49,5.93,7.35,7.35,0,0,1-1.91,5.25,19.17,19.17,0,0,1-4.65,3.19,1.74,1.74,0,0,0-.53.18,28.82,28.82,0,0,0,3.38,2.44,27.87,27.87,0,0,1,3.75,2.81A4.71,4.71,0,0,1,354.62,203.23ZM351,185.72a4.85,4.85,0,0,0-2.58-4.39,9.86,9.86,0,0,0-5.15-1.27,8.9,8.9,0,0,0-1.8.15L341,181a5,5,0,0,0-.59,2.28c-.05,1.38-.1,2.19-.15,2.44a43.21,43.21,0,0,0-.6,6.79,14.74,14.74,0,0,0,3.44,1.05,5.43,5.43,0,0,0,1.49-.3,9.59,9.59,0,0,0,4.49-2.74A6.74,6.74,0,0,0,351,185.72Z"/><path class="cls-8" d="M359.87,179.38a4.74,4.74,0,0,1-.34.64,8.61,8.61,0,0,0-.3,2,129.49,129.49,0,0,0-.86,14.22q0,5.35,1.16,7a2.3,2.3,0,0,1-1.12.49c-1.08,0-1.73-.88-2-2.63a29.79,29.79,0,0,1-.3-3.3l.26-17.77a1.63,1.63,0,0,1,.71-1.13,2.09,2.09,0,0,1,1.24-.6,1.83,1.83,0,0,1,.92.4C359.67,179,359.87,179.18,359.87,179.38Z"/><path class="cls-8" d="M379.18,178.18a.45.45,0,0,1-.34.49l-.71.3c-.35.2-.66,1.33-.94,3.38a30.73,30.73,0,0,0-.33,3.9l-.12,11.38a10.82,10.82,0,0,1-.63,3.27c-.53,1.5-1.19,2.25-2,2.25-1.23,0-2.36-1.13-3.41-3.41a43.57,43.57,0,0,1-1.79-5.12q-1.14-3.76-3.39-11.3-.4.08-.45.75-.07,1-.6,5.25a44.11,44.11,0,0,0-.41,5.25c0,4,.25,6.35.75,7a3.46,3.46,0,0,1,.41.68,1,1,0,0,1-.55.78,1.74,1.74,0,0,1-1,.38q-1.51,0-1.52-4.91c0-.45,0-1.09-.05-1.91s-.06-1.47-.06-1.92a36.8,36.8,0,0,1,.49-4.93,38.56,38.56,0,0,0,.49-5V179.9a.81.81,0,0,0-.06-.24.81.81,0,0,1-.06-.24c0-.65.64-1,1.92-1a2.34,2.34,0,0,1,2.17,1,6.16,6.16,0,0,1,.3,1.65c.08.6.15,1.21.23,1.83a76,76,0,0,0,2.7,9.87q2.58,7.95,3.75,7.95c.67,0,1-1.34,1-4l-.11-11.27a16.12,16.12,0,0,1,.71-4.43c.63-2.13,1.44-3.19,2.44-3.19A2.19,2.19,0,0,1,379.18,178.18Z"/><path class="cls-8" d="M396.36,201.84c-.13.28-.28.41-.45.41a2.16,2.16,0,0,1-.44-.05,2.16,2.16,0,0,0-.43-.06,16.39,16.39,0,0,0-4.66,1,16.25,16.25,0,0,1-4.67,1q-5.29,0-5.29-8.88,0-7,.37-12l.08-1.2a4.14,4.14,0,0,0-.09-.76,3.47,3.47,0,0,1-.1-.66c0-.6.41-.94,1.24-1a53,53,0,0,0,5.47-1.16,26.09,26.09,0,0,1,5.33-.9,2.48,2.48,0,0,1,.52.07,1.92,1.92,0,0,1,1.17.34,1,1,0,0,1,.56.79c0,.5-.64.75-1.91.75a31.33,31.33,0,0,0-5.07.6q-3.75.7-4.65,1.46c-.2,1.9-.43,4.88-.71,8.93a.52.52,0,0,0,.41.19,11.94,11.94,0,0,0,3.34-.72,12.28,12.28,0,0,1,3.38-.71,4,4,0,0,1,1.87.49l.3,1.12c.05.1-.27.28-1,.53a2.27,2.27,0,0,0-1.35-.38,17.62,17.62,0,0,0-3.55.68,22.43,22.43,0,0,0-3.54,1.12,28.79,28.79,0,0,0-.15,3.83q0,5.66,2.89,5.66a13.31,13.31,0,0,0,4-.92,13.31,13.31,0,0,1,4-.92Q395.64,200.49,396.36,201.84Z"/><path class="cls-8" d="M422.23,187.71a23.44,23.44,0,0,1-2.51,10.68q-3.12,6.08-8.25,6.08a5.56,5.56,0,0,1-3.53-1.32c-.42.55-.7.83-.82.83a1.58,1.58,0,0,1-.83-.26,19.71,19.71,0,0,1-.52-5.63q0-3.15.11-9.35c.08-4.14.11-7.27.11-9.4v-.6c0-.55.3-.82.9-.82a1.83,1.83,0,0,1,1,.35,1,1,0,0,1,.52.77,3,3,0,0,1-.26,1.11,3.14,3.14,0,0,0-.26,1.07v1.46a5.57,5.57,0,0,0,1.31-1.84,7.91,7.91,0,0,1,1.76-2.32,5.21,5.21,0,0,1,3.55-1.2,6.64,6.64,0,0,1,6.06,3.33A13.34,13.34,0,0,1,422.23,187.71Zm-2.21-.19a14.31,14.31,0,0,0-1-5.67c-.87-2.1-2.3-3.14-4.27-3.14q-2.1,0-4.16,2.58a13,13,0,0,0-2.37,4.54,17.42,17.42,0,0,0-.6,4.65v7.76a5,5,0,0,0,.94,3,3.3,3.3,0,0,0,2.78,1.43c2,0,3.78-1.06,5.36-3.15a14.74,14.74,0,0,0,2.7-5.93A30.66,30.66,0,0,0,420,187.52Z"/><path class="cls-8" d="M439.11,189.58a34.54,34.54,0,0,1-.72,6.67q-.86,4.55-2.28,6.08a5.72,5.72,0,0,1-4.28,1.95,6.72,6.72,0,0,1-4.5-1.35,7.55,7.55,0,0,1-2.44-4.8,43.09,43.09,0,0,1-.22-5.63c0-1.22.07-3.05.22-5.49s.23-4.26.23-5.45a3.07,3.07,0,0,0-.23-1,3,3,0,0,1-.22-.92c0-.25.2-.51.62-.79a2,2,0,0,1,1-.41,5.74,5.74,0,0,0,1.27,0q.5.12.42.87c-.18.7-.37,1.61-.57,2.74q-.7,6.94-.71,8.56v4.88a10.06,10.06,0,0,0,1,4.55,3.86,3.86,0,0,0,3.55,2.48q3.93,0,5.31-7.55a64.5,64.5,0,0,0,.67-10.7l.08-1.58a12.05,12.05,0,0,0,0-1.65,4.28,4.28,0,0,0-.38-1.49,4,4,0,0,1-.3-.69,1.77,1.77,0,0,1,.28-.85.81.81,0,0,1,.66-.47,1.94,1.94,0,0,1,1,.36c.39.24.59.48.59.73Z"/><path class="cls-8" d="M456.17,189.58a35.28,35.28,0,0,1-.71,6.67q-.87,4.55-2.29,6.08a5.72,5.72,0,0,1-4.28,1.95,6.72,6.72,0,0,1-4.5-1.35,7.5,7.5,0,0,1-2.43-4.8,42.44,42.44,0,0,1-.23-5.63c0-1.22.08-3.05.23-5.49s.22-4.26.22-5.45a3,3,0,0,0-.22-1,3.07,3.07,0,0,1-.23-.92c0-.25.21-.51.62-.79a2,2,0,0,1,1-.41,6,6,0,0,0,1.28,0c.32.08.46.37.41.87-.18.7-.36,1.61-.57,2.74q-.71,6.94-.71,8.56v4.88a10.19,10.19,0,0,0,1,4.55,3.87,3.87,0,0,0,3.55,2.48q3.93,0,5.31-7.55a64.5,64.5,0,0,0,.67-10.7l.08-1.58a12.05,12.05,0,0,0,0-1.65,4.52,4.52,0,0,0-.37-1.49,3.61,3.61,0,0,1-.31-.69,1.69,1.69,0,0,1,.29-.85.78.78,0,0,1,.65-.47,2,2,0,0,1,1,.36c.38.24.58.48.58.73Z"/><path class="cls-8" d="M473.57,200.23c0,1.4-.88,2.48-2.63,3.23a11.3,11.3,0,0,1-4.5.89,15,15,0,0,1-4.84-.89q-3.37-1.17-3.37-2.89c0-.63.3-.94.9-.94a2.73,2.73,0,0,1,1.65.83c.87.82,1.35,1.26,1.42,1.31a8.72,8.72,0,0,0,4.62.94q4.28,0,4.27-2.25c0-.7-.61-1.57-1.84-2.59-.2-.15-1.13-.83-2.81-2a41.29,41.29,0,0,1-5.06-4A8.27,8.27,0,0,1,459,186a9.65,9.65,0,0,1,1.76-5.63,5.79,5.79,0,0,1,4.91-2.85,5.44,5.44,0,0,1,4.31,2.14,9.64,9.64,0,0,1,2.07,4.54,27.15,27.15,0,0,0,.3,2.74l.3,1.35q0,3-1.47,3a1.07,1.07,0,0,1-.76-.44,1.2,1.2,0,0,1-.4-.8,8.33,8.33,0,0,1,.21-1.54,8.13,8.13,0,0,0,.2-1.54,12,12,0,0,0-.81-4.57c-.72-1.8-1.81-2.7-3.28-2.7a4.43,4.43,0,0,0-3.66,1.93,6.81,6.81,0,0,0-1.47,4.22q0,3.07,3.21,5.85l5.95,4.31Q473.57,198.36,473.57,200.23Z"/><path class="cls-8" d="M184.1,145.32q-2.57,15.88-13.44,15.25a16.39,16.39,0,0,1-9.94-3.87l-.44.31v2.56a15.19,15.19,0,0,0,.63,5.44,13.52,13.52,0,0,0,.69,1.28,4.83,4.83,0,0,1,.62,1.34,2.16,2.16,0,0,1-.56,1.41,1.76,1.76,0,0,1-1.38.66,2.81,2.81,0,0,1-2.62-1.25,7.76,7.76,0,0,1-.63-3c-.12-2.13-.18-4.27-.18-6.44,0-1.25.09-3.13.28-5.63s.27-4.4.25-5.71.07-3.25.28-5.82.31-4.47.31-5.72V130.2a6.64,6.64,0,0,0-.22-1.38,7.22,7.22,0,0,1-.22-1.37c0-.79.54-1.19,1.63-1.19a2.16,2.16,0,0,1,1.78.94,3.21,3.21,0,0,1,.72,2,14.31,14.31,0,0,1-.28,2.31,13.25,13.25,0,0,0-.28,2.31v1.63l2.86-5a10.47,10.47,0,0,1,8.92-4.69,10,10,0,0,1,9,4.94A19.44,19.44,0,0,1,184.41,141,30.69,30.69,0,0,1,184.1,145.32Zm-2.82-3.53a20.52,20.52,0,0,0-1.68-8.58q-2.17-4.83-6.42-4.83-5.48,0-9.28,7.32A26.59,26.59,0,0,0,160.66,148v3.31a2.33,2.33,0,0,1,.94-.31q.43,0,.78.63a2.73,2.73,0,0,0,.59.82c0,.13-.1.17-.19.13s-.12,0-.12.12a2.78,2.78,0,0,0,.5,1.14,8.26,8.26,0,0,0,7.47,3.78c3.16,0,5.52-1,7.1-3.13,1.21-1.54,2.16-4,2.87-7.39A31.78,31.78,0,0,0,181.28,141.79Z"/><path class="cls-8" d="M219.85,147.79a28.93,28.93,0,0,1-3.94,15.29q-4.64,7.62-12.81,7.62a15.43,15.43,0,0,1-4.82-.94q-10.44-3.3-10.43-18.72a32.64,32.64,0,0,1,4-16.17q4.74-8.61,13.06-8.61,7.25,0,11.44,7.43A28.14,28.14,0,0,1,219.85,147.79Zm-3.5-.56q0-13.84-9.23-17a5.13,5.13,0,0,0-1.75-.38q-4,0-7.85,3.69Q191,139.81,191,152.85a22.21,22.21,0,0,0,.5,3.74q1.07,5.37,3.49,8,2.86,3,8,3,7.11,0,10.6-7A29.23,29.23,0,0,0,216.35,147.23Z"/><path class="cls-8" d="M254.16,168.63V169a1.19,1.19,0,0,1-1.07.62,1.47,1.47,0,0,1-1.13-.31q-.5-2.56-8.45-8.16t-10.78-5.59h-3.57v3.87a33.4,33.4,0,0,0,.45,3.75,13.49,13.49,0,0,0,.64,3.44,7.91,7.91,0,0,0,1.1,1.56c0,1-.55,1.44-1.63,1.44a3.18,3.18,0,0,1-2.75-1.31Q226,166.94,226,156c0-.58-.73-1.1-2.18-1.56s-2.19-1-2.19-1.63c0-.91,1.33-1.75,4-2.5a39.55,39.55,0,0,0,.56-6c.17-3.12.29-5.14.38-6.06,0-.46.22-1.71.56-3.75a17.51,17.51,0,0,0,.37-3.81,4.09,4.09,0,0,0-1.65-.19c-.9,0-1.35-.35-1.35-1.06a1.52,1.52,0,0,1,1.25-1.63l1.82-.5a4,4,0,0,1,.81-1.37,3.07,3.07,0,0,1,1-.19,2.07,2.07,0,0,1,1.4.69,2,2,0,0,0,1.29.68A5.92,5.92,0,0,0,233,127a6,6,0,0,1,.88-.09,22.22,22.22,0,0,1,11.68,2.87,10.78,10.78,0,0,1,5.82,9.88,12.25,12.25,0,0,1-3.19,8.75q-2,2.19-7.75,5.31a3.47,3.47,0,0,0-.88.31,48.84,48.84,0,0,0,5.63,4.06,46.24,46.24,0,0,1,6.25,4.69Q254.27,165.7,254.16,168.63Zm-6.06-29.18a8.09,8.09,0,0,0-4.3-7.32,16.54,16.54,0,0,0-8.6-2.12,14.64,14.64,0,0,0-3,.25l-.81,1.25a8.25,8.25,0,0,0-1,3.81c-.08,2.29-.16,3.65-.24,4.06a71.38,71.38,0,0,0-1,11.32,25,25,0,0,0,5.73,1.75,9.34,9.34,0,0,0,2.49-.5,15.94,15.94,0,0,0,7.48-4.57A11.21,11.21,0,0,0,248.1,139.45Z"/><path class="cls-8" d="M280.16,130c0,1-.36,1.56-1.07,1.56a7,7,0,0,0-1.38-.69c-.63-.33-2.24-.5-4.83-.5h-2.83c-1,0-1.63.16-1.88.47a5,5,0,0,0-.6,2.13c-.14,1.1-.38,2.74-.72,4.9a166.51,166.51,0,0,0-1.19,20.44q0,8.06,1.75,10.87c0,.59-.21.88-.63.88q-3.3,0-4.18-3.75a31.52,31.52,0,0,1-.38-6.25q0-7,.31-10.56c0-1.13.27-3.75.69-7.88q.5-4.94.5-7.87c0-2.38,0-3,.06-1.75,0-.63-.31-.94-.81-.94a19.16,19.16,0,0,0-3.34.44,19,19,0,0,1-3.35.43,3.1,3.1,0,0,1-3.25-2c.42-.7,3.52-1.41,9.32-2.12q7.25-.81,10.56-.81Q280.15,127,280.16,130Z"/><path class="cls-8" d="M307.78,129.26a2.15,2.15,0,0,1-1.56.69,6.8,6.8,0,0,1-1.12-.13,8,8,0,0,0-1.19-.12,31.17,31.17,0,0,0-7,1.06,62.1,62.1,0,0,1-7,1.51l-1.31,11.79a20.35,20.35,0,0,0-.13,2.13c0,.92.31,1.38.94,1.38a3.06,3.06,0,0,0,.56-.06,41,41,0,0,1,8.69-1.5c2.58,0,3.46,0,2.62-.13a2.64,2.64,0,0,1,2,1.25l.19,1.57a.63.63,0,0,1-.62.43,7.54,7.54,0,0,0-1.16.13,7.19,7.19,0,0,1-1.09.12,41.84,41.84,0,0,0-12.13,2.07,57.77,57.77,0,0,0-.44,9.18q0,5.88.44,6.57a7.73,7.73,0,0,0,.59.75,1.07,1.07,0,0,1,.35.62c0,.29-.23.62-.69,1a2.08,2.08,0,0,1-1.06.53s-.67-.33-1.88-1a26,26,0,0,1-1.31-9.06q0-4.44.72-13.16t.72-13.15a1,1,0,0,0-.88-1.07,5.47,5.47,0,0,1-1.62-.43c-.63-.42-.94-.79-.94-1.13a1.92,1.92,0,0,1,.56-1.25,6.47,6.47,0,0,1,1.57-.19,2,2,0,0,0,1.43-.5,3.53,3.53,0,0,0,.13-.93c0-.63.41-1.19,1.25-1.69a3.55,3.55,0,0,1,1.69-.56c.41,0,.64.27.68.81v1.31a1.07,1.07,0,0,0,.44.63q2.94-.63,5.94-1.25a32.4,32.4,0,0,1,6-.69A6.88,6.88,0,0,1,307.78,129.26Z"/><path class="cls-8" d="M339.41,147.79a28.83,28.83,0,0,1-3.94,15.29q-4.62,7.62-12.81,7.62a15.32,15.32,0,0,1-4.81-.94q-10.44-3.3-10.44-18.72a32.64,32.64,0,0,1,4-16.17q4.74-8.61,13.06-8.61,7.25,0,11.44,7.43A28.14,28.14,0,0,1,339.41,147.79Zm-3.5-.56q0-13.84-9.23-17a5.08,5.08,0,0,0-1.74-.38q-4,0-7.86,3.69-6.56,6.24-6.55,19.28a22.21,22.21,0,0,0,.5,3.74q1.07,5.37,3.49,8,2.88,3,8.05,3,7.1,0,10.6-7A29.36,29.36,0,0,0,335.91,147.23Z"/><path class="cls-8" d="M366.16,167.57a36.35,36.35,0,0,1-13,2.19c-3.59,0-6-1.4-7.38-4.19-1-2-1.43-5-1.43-9q0-3.87.59-11.56t.59-11.5c0-.54,0-1.33-.12-2.38s-.13-1.83-.13-2.37a12,12,0,0,1,.07-1.31,2.32,2.32,0,0,1,1.87-.82q2.19,0,2.19,5.13,0,4.44-.81,13.31t-.82,13.31q0,8.44,5.63,8.44a19.12,19.12,0,0,0,5.28-1.06A19.12,19.12,0,0,1,364,164.7a1.81,1.81,0,0,1,1.59.9A3.51,3.51,0,0,1,366.16,167.57Z"/><path class="cls-8" d="M375.09,128.88a7.89,7.89,0,0,1-.56,1.07,14.92,14.92,0,0,0-.5,3.31A213.16,213.16,0,0,0,372.59,157q0,8.94,1.94,11.68a3.68,3.68,0,0,1-1.87.82c-1.79,0-2.88-1.46-3.25-4.38a47.84,47.84,0,0,1-.5-5.5l.43-29.62a2.69,2.69,0,0,1,1.19-1.88,3.5,3.5,0,0,1,2.06-1,3.09,3.09,0,0,1,1.54.66C374.77,128.17,375.09,128.55,375.09,128.88Z"/><path class="cls-8" d="M406,166.32q-.32.69-.75.69a4.07,4.07,0,0,1-.72-.09,3.44,3.44,0,0,0-.72-.1,27.05,27.05,0,0,0-7.78,1.69,27.4,27.4,0,0,1-7.78,1.69q-8.82,0-8.81-14.8,0-11.73.62-20l.13-2a7.25,7.25,0,0,0-.16-1.28,7.16,7.16,0,0,1-.16-1.09q0-1.5,2.07-1.68a86.27,86.27,0,0,0,9.12-1.94,43.54,43.54,0,0,1,8.88-1.5,4.56,4.56,0,0,1,.87.13,3.14,3.14,0,0,1,1.94.56c.62.42.94.86.94,1.31,0,.84-1.07,1.25-3.19,1.25a52.77,52.77,0,0,0-8.44,1c-4.16.8-6.75,1.61-7.75,2.44q-.5,4.76-1.19,14.88a.84.84,0,0,0,.69.31,20.13,20.13,0,0,0,5.56-1.19,20.29,20.29,0,0,1,5.63-1.19,6.73,6.73,0,0,1,3.12.82l.5,1.87c.09.17-.45.46-1.62.88a3.74,3.74,0,0,0-2.25-.63,29.36,29.36,0,0,0-5.91,1.13,37.91,37.91,0,0,0-5.9,1.87,47.29,47.29,0,0,0-.25,6.38q0,9.44,4.81,9.43a22.05,22.05,0,0,0,6.66-1.53,21.94,21.94,0,0,1,6.65-1.53Q404.79,164.07,406,166.32Z"/></svg>
