<svg id="Layer_1" data-name="Layer 1" xmlns="http://www.w3.org/2000/svg" width="1318" height="1920" viewBox="0 0 1318 1920"><defs><style>.cls-1{fill:#135500;}.cls-2{fill:#f3f9e4;}.cls-3{opacity:0.3;}.cls-4{fill:#006a59;}.cls-5{opacity:0.4;}</style></defs><title>Artboard 9</title><path class="cls-1" d="M395.13,1917c.14,0,.15-20,0-20s-.16,20,0,20Z"/><path class="cls-1" d="M596.79,1146.38c.15,0,.16-20,0-20s-.15,20,0,20Z"/><path class="cls-1" d="M841.67,1146.38c.15,0,.16-20,0-20s-.15,20,0,20Z"/><rect class="cls-2" x="71" y="68" width="1183" height="1699"/><g class="cls-3"><rect class="cls-4" x="131" y="132.44" width="1065" height="1575.56"/></g><g class="cls-5"><rect class="cls-4" x="196" y="201.41" width="936" height="1438.59"/></g><g class="cls-5"><rect class="cls-4" x="262" y="269.47" width="807" height="1305.53"/></g><g class="cls-5"><rect class="cls-4" x="331" y="341.3" width="682" height="1164.7"/></g><g class="cls-5"><rect class="cls-4" x="399" y="407.27" width="544" height="1035.73"/></g><g class="cls-5"><rect class="cls-4" x="473" y="485.22" width="401" height="886.78"/></g></svg>
