<svg id="Layer_1" data-name="Layer 1" xmlns="http://www.w3.org/2000/svg" width="199.31mm" height="173.71mm" viewBox="0 0 564.97 492.4"><defs><style>.cls-1{fill:#010101;}.cls-2{fill:#1d1d1b;}</style></defs><title>Artboard 12</title><path class="cls-1" d="M79.12,127.35c-2.66-.25-22.76,4.75-22.76,4.75s-9.72,17.33-11,21.56S37.4,189.43,34.88,197s-6.1,16.81-12.53,18.8,1.34,22.25,1.34,22.25l20,8s13.15-5.31,15-6S73.05,231,73.05,231l19.13-93.41S81.77,127.61,79.12,127.35Z"/><path class="cls-1" d="M89.69,120.07c11-5,8-8,21-10,3.94-.61,22.25,6,26.25,6.83.51.12,29,8.41,29,8.41a11.5,11.5,0,0,1,8.37,5.52c2,3.4,7.07,6.74,8.35,11.24,2,7-4,9-5,9-.85,0-25.88,2.2-33.08,2.83a11.46,11.46,0,0,1-3.78-.3c-6.27-1.56-26.29-6.53-27.14-6.53S97.16,145.56,88,144.68a11.5,11.5,0,0,1-9.19-6.31h0A11.52,11.52,0,0,1,84,122.92Z"/><path class="cls-1" d="M179.17,188.31c0,13.79-7.16,25.29-14.07,35.65-10.43,15.66-24.25,27.1-43.33,27.1-18.73,0-32.89-9.6-43.37-24.77-7.25-10.51-14-23.8-14-38,0-34.66,25.7-62.75,57.4-62.75S179.17,153.65,179.17,188.31Z"/><path class="cls-1" d="M98.8,268.09c-3.86-6.19-50,3.1-53.19,5.42S21.89,285.89,21.89,320V453.88l36,58.06h94l48.27-12.38-5-116.9,18-85.15s-12.3-30.2-23.88-30.2S98.8,268.09,98.8,268.09Z"/><path class="cls-1" d="M205.73,296.32,239.6,328l46.26-51.32h24.78l-47.08,85.54s-25.42,25.73-41.94,11.19-61.94-45.67-61.94-45.67l-7.74-27.87,10.84-31.74,31,6.19Z"/><path class="cls-1" d="M292.18,295.23l7.47,3.26a8.72,8.72,0,0,0,2,.61c3.53.63,14.92,2.4,18.8-.2,4.61-3.09,0,1,2.77-5.66s-1.39-7.71-.47-11.32,2.77-5.14,1.39-7.71,0-5.66,2.31-11.32c1.08-2.65.13-5.41-1.18-7.6a8.77,8.77,0,0,0-7.55-4.23h-8.35s-6,1,.46-20.07c4.27-13.94-.12-14.29-3.59-12.93a8.63,8.63,0,0,0-4.57,4.27c-.84,1.71-2,4.3-3.4,7.65-1.23,3-2.3,8.21-7.37,18.51-3.46,7-3.46,6.26-5.08,12.86s0,9.49.36,10.43a8.1,8.1,0,0,1,.33,3.25L286,281.6a14,14,0,0,0,.19,3.71l.5,2.62A9.82,9.82,0,0,0,292.18,295.23Z"/><path class="cls-1" d="M99,234s-2.23,37.93-8.9,47.22,26,9.29,26,9.29l29.66-3.87s-5.93-13.16-6.67-27.1A147.78,147.78,0,0,0,135.37,234Z"/><path class="cls-1" d="M75.88,269.87a1.94,1.94,0,0,0-2-2.34c-7.72.32-31.49,2.41-43.64,16.09-12.53,14.09-20.15,46.08-22.08,55A1.94,1.94,0,0,0,10.08,341h4.61l44.32.65a2,2,0,0,0,1.92-1.53Z"/><path class="cls-1" d="M151,270.8a1.94,1.94,0,0,1,1.14-2.84c7.43-2.12,30.65-7.6,46.48,1.57,16.32,9.44,33.61,37.42,38.25,45.28a1.93,1.93,0,0,1-1.06,2.82l-4.38,1.44-41.87,14.54a1.93,1.93,0,0,1-2.3-.85Z"/><rect class="cls-2" x="292.4" y="4.9" width="266.15" height="202.71" rx="29.91"/></svg>
