<svg id="Layer_1" data-name="Layer 1" xmlns="http://www.w3.org/2000/svg" width="201.71mm" height="184.1mm" viewBox="0 0 571.77 521.86"><defs><style>.cls-1{fill:#010101;}.cls-2{fill:#1d1d1b;}</style></defs><title>Artboard 12</title><path class="cls-1" d="M79.12,156.81c-2.66-.26-22.76,4.75-22.76,4.75s-9.72,17.33-11,21.55-7.94,35.78-10.46,43.37-6.1,16.81-12.53,18.79,1.34,22.26,1.34,22.26l20,8s13.15-5.31,15-6,14.36-9.07,14.36-9.07l19.13-93.41S81.77,157.07,79.12,156.81Z"/><path class="cls-1" d="M89.69,149.53c11-5,8-8,21-10,3.94-.61,22.25,5.95,26.25,6.83.51.11,29,8.4,29,8.4a11.54,11.54,0,0,1,8.37,5.53c2,3.39,7.07,6.73,8.35,11.24,2,7-4,9-5,9-.85,0-25.88,2.19-33.08,2.83a11.46,11.46,0,0,1-3.78-.3c-6.27-1.56-26.29-6.53-27.14-6.53S97.16,175,88,174.14a11.53,11.53,0,0,1-9.19-6.31h0A11.52,11.52,0,0,1,84,152.38Z"/><path class="cls-1" d="M179.17,217.76c0,13.8-7.16,25.3-14.07,35.66-10.43,15.66-24.25,27.09-43.33,27.09-18.73,0-32.89-9.59-43.37-24.77-7.25-10.5-14-23.8-14-38,0-34.65,25.7-62.74,57.4-62.74S179.17,183.11,179.17,217.76Z"/><path class="cls-1" d="M98.8,297.55c-3.86-6.2-50,3.09-53.19,5.41s-23.72,12.39-23.72,46.45V483.34l36,58.06h94L200.16,529l-5-116.89,18-85.16s-12.3-30.19-23.88-30.19S98.8,297.55,98.8,297.55Z"/><path class="cls-1" d="M205.73,325.77l33.87,31.65,46.26-51.32h24.78l-47.08,85.53s-25.42,25.74-41.94,11.2-61.94-45.68-61.94-45.68l-7.74-27.86,10.84-31.74,31,6.19Z"/><path class="cls-1" d="M292.18,324.68l7.47,3.27a9.25,9.25,0,0,0,2,.61c3.53.63,14.92,2.39,18.8-.2,4.61-3.09,0,1,2.77-5.66s-1.39-7.72-.47-11.32,2.77-5.14,1.39-7.72,0-5.65,2.31-11.31c1.08-2.65.13-5.42-1.18-7.6a8.78,8.78,0,0,0-7.55-4.24h-8.35s-6,1,.46-20.06c4.27-13.94-.12-14.29-3.59-12.93a8.65,8.65,0,0,0-4.57,4.26c-.84,1.72-2,4.3-3.4,7.65-1.23,3.05-2.3,8.22-7.37,18.51-3.46,7-3.46,6.27-5.08,12.86s0,9.5.36,10.44a8.07,8.07,0,0,1,.33,3.24l-.53,6.58a14,14,0,0,0,.19,3.71l.5,2.62A9.83,9.83,0,0,0,292.18,324.68Z"/><path class="cls-1" d="M99,263.48s-2.23,37.94-8.9,47.23,26,9.29,26,9.29l29.66-3.87S139.82,303,139.08,289a148,148,0,0,0-3.71-25.55Z"/><path class="cls-1" d="M75.88,299.32a1.93,1.93,0,0,0-2-2.33c-7.72.32-31.49,2.41-43.64,16.08-12.53,14.1-20.15,46.09-22.08,55a1.93,1.93,0,0,0,1.89,2.34h4.61l44.32.65a2,2,0,0,0,1.92-1.53Z"/><path class="cls-1" d="M151,300.26a1.94,1.94,0,0,1,1.14-2.84c7.43-2.12,30.65-7.6,46.48,1.56,16.32,9.45,33.61,37.43,38.25,45.29a1.94,1.94,0,0,1-1.06,2.82l-4.38,1.44-41.87,14.54a1.94,1.94,0,0,1-2.3-.85Z"/><rect class="cls-2" x="296.58" y="6.95" width="266.15" height="236.63" rx="29.91"/></svg>
