<svg id="Layer_1" data-name="Layer 1" xmlns="http://www.w3.org/2000/svg" width="194.17mm" height="172.81mm" viewBox="0 0 550.41 489.84"><defs><style>.cls-1{fill:#010101;}.cls-2{fill:#1d1d1b;}</style></defs><title>Artboard 17</title><path class="cls-1" d="M71,134.72c-2.65-.26-22.76,4.75-22.76,4.75S38.5,156.8,37.2,161s-7.94,35.78-10.46,43.36-6.1,16.82-12.53,18.8,1.34,22.25,1.34,22.25l20,8s13.15-5.31,15-6,14.36-9.06,14.36-9.06L84,145S73.62,135,71,134.72Z"/><path class="cls-1" d="M81.55,127.43c11-5,8-8,21-10,3.94-.6,22.24,6,26.24,6.84.51.11,29,8.4,29,8.4a11.53,11.53,0,0,1,8.37,5.53c2,3.39,7.06,6.73,8.35,11.23,2,7-4,9-5,9s-25.88,2.2-33.08,2.83a11.2,11.2,0,0,1-3.78-.29c-6.28-1.56-26.3-6.54-27.14-6.54S89,152.92,79.89,152a11.47,11.47,0,0,1-9.19-6.31h0a11.52,11.52,0,0,1,5.15-15.45Z"/><path class="cls-1" d="M171,195.67c0,13.8-7.16,25.3-14.06,35.66-10.44,15.66-24.25,27.09-43.34,27.09-18.73,0-32.89-9.59-43.36-24.77-7.26-10.51-14-23.8-14-38,0-34.65,25.7-62.75,57.4-62.75S171,161,171,195.67Z"/><path class="cls-1" d="M90.66,275.45c-3.86-6.19-50,3.1-53.19,5.42s-23.73,12.39-23.73,46.45V461.25l36.05,58.06h94L192,506.92,187,390l18-85.16s-12.3-30.19-23.88-30.19S90.66,275.45,90.66,275.45Z"/><path class="cls-1" d="M197.59,303.68l33.87,31.65L277.72,284H302.5l-47.09,85.53s-25.42,25.74-41.94,11.2-61.93-45.68-61.93-45.68l-7.74-27.87,10.84-31.74,31,6.2Z"/><path class="cls-1" d="M284,302.59l7.47,3.27a8.54,8.54,0,0,0,2,.6c3.53.63,14.91,2.4,18.79-.2,4.62-3.08,0,1,2.77-5.65s-1.38-7.72-.46-11.32,2.77-5.15,1.39-7.72,0-5.66,2.3-11.32c1.08-2.65.14-5.41-1.17-7.6a8.8,8.8,0,0,0-7.56-4.23H301.2s-6,1,.47-20.06c4.27-13.94-.13-14.3-3.6-12.93a8.63,8.63,0,0,0-4.56,4.26c-.84,1.71-2,4.3-3.4,7.65-1.23,3-2.3,8.22-7.37,18.51-3.47,7-3.47,6.26-5.08,12.86s0,9.5.35,10.43a8.12,8.12,0,0,1,.34,3.25l-.54,6.57a14,14,0,0,0,.2,3.71l.49,2.63A9.86,9.86,0,0,0,284,302.59Z"/><path class="cls-1" d="M90.89,241.39s-2.22,37.93-8.9,47.22,26,9.29,26,9.29L137.61,294s-5.94-13.16-6.68-27.09a147.25,147.25,0,0,0-3.7-25.55Z"/><path class="cls-1" d="M67.74,277.23a1.93,1.93,0,0,0-2-2.33c-7.72.31-31.49,2.41-43.64,16.08C9.6,305.08,2,337.07,0,346a1.94,1.94,0,0,0,1.9,2.34H6.55l44.31.65a1.91,1.91,0,0,0,1.92-1.53Z"/><path class="cls-1" d="M142.84,278.16a1.93,1.93,0,0,1,1.14-2.83c7.42-2.12,30.65-7.6,46.48,1.56,16.32,9.45,33.61,37.42,38.25,45.29a1.94,1.94,0,0,1-1.06,2.82l-4.39,1.44L181.4,341a1.92,1.92,0,0,1-2.3-.85Z"/><rect class="cls-2" x="216.11" width="334.3" height="214.97" rx="29.91"/></svg>