<svg id="Layer_1" data-name="Layer 1" xmlns="http://www.w3.org/2000/svg" width="175.16mm" height="226.01mm" viewBox="0 0 496.53 640.65"><defs><style>.cls-1{fill:#cde1ac;opacity:0.3;}.cls-2{fill:#f8bdaa;stroke:#e0e47b;stroke-miterlimit:10;opacity:0.2;}.cls-3{fill:#1d1d1b;}</style></defs><title>Artboard 27</title><path class="cls-1" d="M304.21,483.92C168.83,426.41,85,347.68,98.26,289.11c6.55-28.93,35.57-47.52,81.88-77.18,32.4-20.74,147.08-94.18,194-67.41,99.57,56.75-149.41,538.67-101.73,560.71,39,18,275.53-272,213.89-339.4-50-54.68-333.58,144.23-368.23,103.21C76,419.17,466.75,99.88,410.41,26.43,389.09-1.38,305.38,12.85,138,41.31,82.62,50.71,35.78,61,0,69.67"/><ellipse class="cls-2" cx="135.97" cy="547.92" rx="82.88" ry="81.6"/><path class="cls-3" d="M285,61.56c0,.62-.22.93-.64.93a5.23,5.23,0,0,0-.83-.41,8.14,8.14,0,0,0-2.9-.3h-1.7c-.6,0-1,.1-1.13.28a2.92,2.92,0,0,0-.35,1.28c-.09.66-.24,1.64-.44,2.94a100.69,100.69,0,0,0-.71,12.26c0,3.23.35,5.4,1.05,6.53,0,.35-.13.52-.38.52-1.32,0-2.15-.75-2.51-2.25a19.07,19.07,0,0,1-.22-3.75q0-4.2.18-6.33c0-.68.17-2.25.42-4.73.2-2,.3-3.55.3-4.72q0-2.14,0-1.05,0-.57-.48-.57a11.13,11.13,0,0,0-2,.27,11.88,11.88,0,0,1-2,.26,1.86,1.86,0,0,1-1.95-1.2c.25-.43,2.12-.85,5.59-1.28q4.35-.48,6.34-.48Q285,59.76,285,61.56Z"/><path class="cls-3" d="M305.85,84.77V85a.71.71,0,0,1-.64.37c-.35,0-.58-.06-.68-.19q-.3-1.53-5.07-4.89c-3.19-2.24-5.34-3.36-6.47-3.36h-2.14v2.33a20.58,20.58,0,0,0,.27,2.25,7.92,7.92,0,0,0,.38,2.06,5.14,5.14,0,0,0,.66.94c0,.57-.32.86-1,.86a1.88,1.88,0,0,1-1.65-.79q-.57-.78-.57-7.35c0-.35-.44-.66-1.31-.93s-1.31-.6-1.31-1q0-.82,2.4-1.5a25.91,25.91,0,0,0,.34-3.6c.09-1.87.17-3.09.22-3.64,0-.27.14-1,.34-2.25a10.29,10.29,0,0,0,.22-2.28,2.34,2.34,0,0,0-1-.12q-.81,0-.81-.63a.91.91,0,0,1,.75-1l1.09-.3a2.53,2.53,0,0,1,.49-.82A1.77,1.77,0,0,1,291,59a1.25,1.25,0,0,1,.84.42,1.24,1.24,0,0,0,.77.41,3.26,3.26,0,0,0,.53-.06,4.21,4.21,0,0,1,.52-.05,13.29,13.29,0,0,1,7,1.72,6.47,6.47,0,0,1,3.49,5.93,7.35,7.35,0,0,1-1.91,5.25,19.21,19.21,0,0,1-4.65,3.18,2.15,2.15,0,0,0-.53.19,28.82,28.82,0,0,0,3.38,2.44,27.87,27.87,0,0,1,3.75,2.81A4.69,4.69,0,0,1,305.85,84.77Zm-3.64-17.51a4.84,4.84,0,0,0-2.58-4.39,9.87,9.87,0,0,0-5.16-1.28,8.86,8.86,0,0,0-1.79.15l-.49.75a4.79,4.79,0,0,0-.59,2.29c-.05,1.38-.1,2.19-.15,2.44a43.21,43.21,0,0,0-.6,6.79,14.74,14.74,0,0,0,3.44,1,5.5,5.5,0,0,0,1.49-.3A9.59,9.59,0,0,0,300.27,72,6.76,6.76,0,0,0,302.21,67.26Z"/><path class="cls-3" d="M311.1,60.92a5.57,5.57,0,0,1-.34.64,8.61,8.61,0,0,0-.3,2,127.06,127.06,0,0,0-.86,14.22q0,5.35,1.16,7a2.32,2.32,0,0,1-1.13.49c-1.07,0-1.72-.88-1.94-2.63a28.09,28.09,0,0,1-.31-3.3l.27-17.77a1.59,1.59,0,0,1,.71-1.13,2.07,2.07,0,0,1,1.24-.6,1.89,1.89,0,0,1,.92.39C310.9,60.49,311.1,60.72,311.1,60.92Z"/><path class="cls-3" d="M330.41,59.72a.46.46,0,0,1-.34.49l-.71.3c-.35.2-.66,1.33-.94,3.38a31.06,31.06,0,0,0-.34,3.9L328,79.17a10.91,10.91,0,0,1-.64,3.27q-.78,2.25-2,2.25c-1.23,0-2.37-1.13-3.42-3.41a46.16,46.16,0,0,1-1.78-5.12q-1.14-3.76-3.39-11.3-.42.08-.45.75-.07,1-.6,5.25a42.09,42.09,0,0,0-.41,5.25c0,4,.25,6.35.75,7a3.46,3.46,0,0,1,.41.68,1,1,0,0,1-.55.78,1.82,1.82,0,0,1-1,.38q-1.51,0-1.52-4.91c0-.45,0-1.09-.05-1.92s-.06-1.46-.06-1.91a36.8,36.8,0,0,1,.49-4.93,38.14,38.14,0,0,0,.48-5V61.44a.72.72,0,0,0,0-.24.81.81,0,0,1-.06-.24c0-.65.64-1,1.91-1a2.36,2.36,0,0,1,2.18,1,6.16,6.16,0,0,1,.3,1.65c.07.6.15,1.21.22,1.83a79.93,79.93,0,0,0,2.7,9.87q2.59,7.95,3.75,8c.68,0,1-1.34,1-4L326.1,67a15.7,15.7,0,0,1,.71-4.43c.62-2.13,1.44-3.2,2.44-3.2A2.21,2.21,0,0,1,330.41,59.72Z"/><path class="cls-3" d="M347.58,83.38c-.12.28-.27.41-.45.41a2.08,2.08,0,0,1-.43-.05,2.16,2.16,0,0,0-.43-.06,16.51,16.51,0,0,0-4.67,1,16.12,16.12,0,0,1-4.67,1q-5.28,0-5.28-8.88,0-7,.37-12l.08-1.2a3.52,3.52,0,0,0-.1-.76,4.32,4.32,0,0,1-.09-.66c0-.6.41-.94,1.24-1A53,53,0,0,0,338.62,60a26.09,26.09,0,0,1,5.33-.9,2.48,2.48,0,0,1,.52.07,1.87,1.87,0,0,1,1.16.34c.38.25.57.51.57.79q0,.75-1.92.75a31.23,31.23,0,0,0-5.06.6q-3.75.7-4.65,1.46-.3,2.85-.71,8.93a.51.51,0,0,0,.41.18,11.91,11.91,0,0,0,3.34-.71,12.23,12.23,0,0,1,3.37-.71,4,4,0,0,1,1.88.49l.3,1.12c0,.1-.28.28-1,.53a2.27,2.27,0,0,0-1.35-.38,17.69,17.69,0,0,0-3.54.68,22.43,22.43,0,0,0-3.54,1.12,28.79,28.79,0,0,0-.15,3.83q0,5.66,2.88,5.66a13.29,13.29,0,0,0,4-.92,13.31,13.31,0,0,1,4-.92C346.07,82,347.11,82.48,347.58,83.38Z"/><path class="cls-3" d="M373.46,69.24A23.48,23.48,0,0,1,371,79.93Q367.83,86,362.7,86a5.56,5.56,0,0,1-3.53-1.32c-.42.55-.7.83-.82.83a1.58,1.58,0,0,1-.83-.26,19.71,19.71,0,0,1-.52-5.63c0-2.1,0-5.22.11-9.35s.11-7.27.11-9.4v-.6c0-.55.3-.82.9-.82a1.83,1.83,0,0,1,1,.35,1,1,0,0,1,.52.77,3.23,3.23,0,0,1-.26,1.11,2.92,2.92,0,0,0-.26,1.07v1.46a5.7,5.7,0,0,0,1.31-1.84,7.9,7.9,0,0,1,1.75-2.32,5.25,5.25,0,0,1,3.56-1.2,6.64,6.64,0,0,1,6.06,3.33A13.33,13.33,0,0,1,373.46,69.24Zm-2.21-.18a14.31,14.31,0,0,0-1-5.67c-.87-2.1-2.3-3.15-4.27-3.15-1.4,0-2.79.87-4.17,2.59a13.09,13.09,0,0,0-2.36,4.54,17.42,17.42,0,0,0-.6,4.65v7.76a5,5,0,0,0,.94,3,3.27,3.27,0,0,0,2.77,1.42q3,0,5.37-3.15a14.7,14.7,0,0,0,2.7-5.92A30.73,30.73,0,0,0,371.25,69.06Z"/><path class="cls-3" d="M390.33,71.12a34.48,34.48,0,0,1-.71,6.67c-.57,3-1.34,5-2.29,6.08a5.7,5.7,0,0,1-4.27,1.95,6.72,6.72,0,0,1-4.5-1.35,7.55,7.55,0,0,1-2.44-4.8A43.2,43.2,0,0,1,375.9,74c0-1.22.07-3.05.22-5.49s.23-4.26.23-5.46a3.08,3.08,0,0,0-.23-1,3,3,0,0,1-.22-.92c0-.25.2-.51.62-.79a2,2,0,0,1,1-.41,5.74,5.74,0,0,0,1.27,0c.33.08.46.36.41.87-.17.7-.36,1.61-.56,2.74q-.71,6.94-.71,8.56V77a10.06,10.06,0,0,0,1,4.55,3.86,3.86,0,0,0,3.55,2.48c2.62,0,4.38-2.52,5.31-7.55a65.76,65.76,0,0,0,.67-10.71l.07-1.57a11,11,0,0,0,0-1.66,4.23,4.23,0,0,0-.38-1.48,4,4,0,0,1-.3-.69,1.77,1.77,0,0,1,.28-.85.81.81,0,0,1,.66-.47,2,2,0,0,1,1,.36c.39.24.58.48.58.73Z"/><path class="cls-3" d="M407.4,71.12a34.54,34.54,0,0,1-.72,6.67c-.57,3-1.33,5-2.28,6.08a5.72,5.72,0,0,1-4.28,1.95,6.72,6.72,0,0,1-4.5-1.35,7.55,7.55,0,0,1-2.44-4.8A43.2,43.2,0,0,1,393,74c0-1.22.07-3.05.22-5.49s.23-4.26.23-5.46a3.08,3.08,0,0,0-.23-1,3,3,0,0,1-.22-.92c0-.25.2-.51.62-.79a2,2,0,0,1,1-.41,5.74,5.74,0,0,0,1.27,0c.33.08.47.36.42.87-.18.7-.37,1.61-.57,2.74q-.71,6.94-.71,8.56V77a10.06,10.06,0,0,0,1,4.55,3.86,3.86,0,0,0,3.55,2.48q3.93,0,5.31-7.55a64.64,64.64,0,0,0,.67-10.71l.08-1.57a12.25,12.25,0,0,0,0-1.66,4.23,4.23,0,0,0-.38-1.48,4,4,0,0,1-.3-.69,1.77,1.77,0,0,1,.28-.85.81.81,0,0,1,.66-.47,1.94,1.94,0,0,1,1,.36c.39.24.59.48.59.73Z"/><path class="cls-3" d="M424.8,81.77c0,1.4-.88,2.47-2.63,3.22a11.3,11.3,0,0,1-4.5.9,15,15,0,0,1-4.84-.9q-3.37-1.15-3.37-2.88c0-.63.3-.94.9-.94A2.7,2.7,0,0,1,412,82c.87.83,1.35,1.27,1.42,1.32a8.73,8.73,0,0,0,4.62.93q4.27,0,4.27-2.25c0-.7-.61-1.56-1.84-2.58l-2.81-2a41.29,41.29,0,0,1-5.06-4,8.27,8.27,0,0,1-2.36-5.85A9.65,9.65,0,0,1,412,61.93a5.79,5.79,0,0,1,4.91-2.85,5.45,5.45,0,0,1,4.31,2.14,9.64,9.64,0,0,1,2.07,4.54,26.73,26.73,0,0,0,.3,2.73l.3,1.35q0,3-1.47,3a1.09,1.09,0,0,1-.77-.43,1.22,1.22,0,0,1-.39-.8,8.23,8.23,0,0,1,.21-1.54,9.06,9.06,0,0,0,.2-1.54,11.83,11.83,0,0,0-.82-4.57q-1.08-2.7-3.27-2.7a4.43,4.43,0,0,0-3.66,1.93,6.81,6.81,0,0,0-1.47,4.22q0,3.07,3.21,5.85l5.95,4.31Q424.8,79.9,424.8,81.77Z"/><path class="cls-3" d="M135.32,26.86q-2.56,15.89-13.43,15.25A16.39,16.39,0,0,1,112,38.24l-.44.31v2.56a15.19,15.19,0,0,0,.63,5.44c0,.12.27.55.68,1.28a4.69,4.69,0,0,1,.63,1.34,2.16,2.16,0,0,1-.56,1.41,1.76,1.76,0,0,1-1.38.66A2.81,2.81,0,0,1,108.89,50a7.58,7.58,0,0,1-.63-3c-.12-2.13-.19-4.27-.19-6.44,0-1.25.1-3.13.29-5.63s.27-4.4.25-5.72.07-3.25.28-5.81.31-4.47.31-5.72V11.74a6.64,6.64,0,0,0-.22-1.38A6.48,6.48,0,0,1,108.76,9c0-.79.54-1.19,1.63-1.19a2.17,2.17,0,0,1,1.78.94,3.21,3.21,0,0,1,.72,2,14.31,14.31,0,0,1-.28,2.31,13.47,13.47,0,0,0-.29,2.31V17l2.87-5a10.47,10.47,0,0,1,8.92-4.69,10,10,0,0,1,9,4.94,19.34,19.34,0,0,1,2.5,10.31A29.25,29.25,0,0,1,135.32,26.86Zm-2.81-3.53a20.52,20.52,0,0,0-1.68-8.58c-1.46-3.22-3.59-4.83-6.42-4.83q-5.49,0-9.28,7.32a26.59,26.59,0,0,0-3.24,12.31v3.31a2.29,2.29,0,0,1,.93-.31c.29,0,.56.21.79.63a2.57,2.57,0,0,0,.59.82c0,.13-.11.17-.19.13s-.12,0-.12.12a2.86,2.86,0,0,0,.49,1.14,8.28,8.28,0,0,0,7.48,3.78c3.16,0,5.52-1,7.1-3.13,1.2-1.54,2.16-4,2.87-7.39A31.78,31.78,0,0,0,132.51,23.33Z"/><path class="cls-3" d="M171.07,29.33a29,29,0,0,1-3.93,15.29q-4.63,7.62-12.82,7.62a15.37,15.37,0,0,1-4.81-.94Q139.07,48,139.07,32.58a32.72,32.72,0,0,1,4-16.17q4.76-8.61,13.07-8.61,7.25,0,11.43,7.43A28,28,0,0,1,171.07,29.33Zm-3.5-.56q0-13.84-9.22-17a5.13,5.13,0,0,0-1.75-.38q-4,0-7.86,3.69-6.54,6.24-6.54,19.28a21.31,21.31,0,0,0,.5,3.74c.7,3.58,1.87,6.24,3.49,8q2.87,3,8,3,7.11,0,10.6-7A29.23,29.23,0,0,0,167.57,28.77Z"/><path class="cls-3" d="M205.39,50.17v.32a1.19,1.19,0,0,1-1.07.62,1.47,1.47,0,0,1-1.13-.31q-.49-2.56-8.46-8.16T184,37.05h-3.57v3.87a33.4,33.4,0,0,0,.45,3.75,13,13,0,0,0,.64,3.44,8.31,8.31,0,0,0,1.09,1.56q0,1.44-1.62,1.44a3.17,3.17,0,0,1-2.75-1.31q-.94-1.32-.94-12.25,0-.87-2.19-1.56c-1.46-.46-2.18-1-2.18-1.63,0-.91,1.33-1.75,4-2.5a40.89,40.89,0,0,0,.56-6c.16-3.12.29-5.14.37-6.06q.06-.69.57-3.75a17.51,17.51,0,0,0,.37-3.81,4.09,4.09,0,0,0-1.65-.19c-.9,0-1.35-.35-1.35-1.06A1.52,1.52,0,0,1,177,9.36l1.81-.5a4.19,4.19,0,0,1,.82-1.37,3,3,0,0,1,1-.19A2.09,2.09,0,0,1,182,8a2,2,0,0,0,1.28.68,6,6,0,0,0,.88-.09,5.79,5.79,0,0,1,.87-.09,22.26,22.26,0,0,1,11.69,2.87,10.77,10.77,0,0,1,5.81,9.88A12.25,12.25,0,0,1,199.39,30q-2,2.19-7.75,5.31a3.34,3.34,0,0,0-.88.31,47.91,47.91,0,0,0,5.63,4.06,46.24,46.24,0,0,1,6.25,4.69Q205.51,47.24,205.39,50.17ZM199.32,21A8.08,8.08,0,0,0,195,13.67a16.54,16.54,0,0,0-8.6-2.12,14.57,14.57,0,0,0-3,.25l-.81,1.25a8.13,8.13,0,0,0-1,3.81,38.71,38.71,0,0,1-.25,4.06,71.66,71.66,0,0,0-1,11.32A25,25,0,0,0,186.12,34a9.34,9.34,0,0,0,2.49-.5,15.9,15.9,0,0,0,7.47-4.57A11.21,11.21,0,0,0,199.32,21Z"/><path class="cls-3" d="M231.39,11.49c0,1-.36,1.56-1.07,1.56a7.52,7.52,0,0,0-1.38-.69c-.63-.33-2.24-.5-4.83-.5h-2.83c-1,0-1.63.16-1.88.47a4.94,4.94,0,0,0-.6,2.12c-.15,1.11-.39,2.75-.72,4.91a164.56,164.56,0,0,0-1.19,20.44q0,8.06,1.75,10.87c0,.59-.21.88-.64.88q-3.28,0-4.17-3.75a31.52,31.52,0,0,1-.38-6.25q0-7,.31-10.56c0-1.13.27-3.75.69-7.88q.5-4.93.5-7.87c0-2.38,0-3,.06-1.75,0-.63-.31-.94-.81-.94a19,19,0,0,0-3.34.44,19,19,0,0,1-3.35.43,3.09,3.09,0,0,1-3.25-2q.63-1,9.31-2.12,7.26-.81,10.57-.81Q231.39,8.49,231.39,11.49Z"/><path class="cls-3" d="M259,10.8a2.15,2.15,0,0,1-1.56.69,6.89,6.89,0,0,1-1.13-.13,7.9,7.9,0,0,0-1.18-.12,31.17,31.17,0,0,0-7,1.06,62.1,62.1,0,0,1-7,1.51L239.82,25.6q-.12,1.26-.12,2.13c0,.92.31,1.38.94,1.38a3.06,3.06,0,0,0,.56-.06,41,41,0,0,1,8.69-1.5c2.58,0,3.46,0,2.62-.13a2.64,2.64,0,0,1,2,1.25l.19,1.57a.65.65,0,0,1-.63.43,7.56,7.56,0,0,0-1.15.13,7.29,7.29,0,0,1-1.1.12A41.83,41.83,0,0,0,239.7,33a57.77,57.77,0,0,0-.44,9.18q0,5.88.44,6.57a6.44,6.44,0,0,0,.59.75,1.07,1.07,0,0,1,.35.62c0,.29-.23.62-.69,1a2.08,2.08,0,0,1-1.06.53s-.67-.33-1.88-1a26,26,0,0,1-1.31-9.06q0-4.44.72-13.16t.72-13.15a1,1,0,0,0-.88-1.07,5.36,5.36,0,0,1-1.62-.43c-.63-.42-.94-.79-.94-1.13a1.92,1.92,0,0,1,.56-1.25,6.44,6.44,0,0,1,1.56-.19,2,2,0,0,0,1.44-.5,4,4,0,0,0,.13-.93c0-.63.41-1.19,1.25-1.69a3.55,3.55,0,0,1,1.68-.56q.63,0,.69.81V9.61a1.07,1.07,0,0,0,.44.63q2.94-.63,5.94-1.25a32.4,32.4,0,0,1,6-.69A6.88,6.88,0,0,1,259,10.8Z"/><path class="cls-3" d="M290.64,29.33a29,29,0,0,1-3.94,15.29q-4.63,7.62-12.81,7.62a15.43,15.43,0,0,1-4.82-.94Q258.63,48,258.64,32.58a32.61,32.61,0,0,1,4-16.17Q267.38,7.8,275.7,7.8q7.24,0,11.44,7.43A28.12,28.12,0,0,1,290.64,29.33Zm-3.5-.56q0-13.84-9.23-17a5.13,5.13,0,0,0-1.75-.38q-4,0-7.85,3.69-6.56,6.24-6.55,19.28a22.34,22.34,0,0,0,.5,3.74q1.07,5.37,3.49,8,2.87,3,8,3,7.11,0,10.6-7A29.23,29.23,0,0,0,287.14,28.77Z"/><path class="cls-3" d="M317.39,49.11a36.35,36.35,0,0,1-13,2.19q-5.38,0-7.38-4.19-1.44-2.94-1.44-9,0-3.87.6-11.56t.59-11.5c0-.54,0-1.33-.12-2.38s-.13-1.83-.13-2.37,0-.85.06-1.31a2.35,2.35,0,0,1,1.88-.82q2.19,0,2.19,5.13,0,4.44-.82,13.31T299,39.92q0,8.44,5.63,8.44a19.12,19.12,0,0,0,5.28-1.06,19.12,19.12,0,0,1,5.28-1.06,1.82,1.82,0,0,1,1.59.9A3.51,3.51,0,0,1,317.39,49.11Z"/><path class="cls-3" d="M326.32,10.42a7.89,7.89,0,0,1-.56,1.07,14.29,14.29,0,0,0-.5,3.31,213.16,213.16,0,0,0-1.44,23.69q0,8.94,1.94,11.68a3.81,3.81,0,0,1-1.87.82q-2.7,0-3.25-4.38a47.84,47.84,0,0,1-.5-5.5l.43-29.62a2.69,2.69,0,0,1,1.19-1.88,3.5,3.5,0,0,1,2.06-1,3,3,0,0,1,1.53.66C326,9.7,326.32,10.09,326.32,10.42Z"/><path class="cls-3" d="M357.2,47.86q-.31.69-.75.69a3.44,3.44,0,0,1-.72-.1,4.07,4.07,0,0,0-.72-.09,27,27,0,0,0-7.78,1.69,27.4,27.4,0,0,1-7.78,1.69q-8.82,0-8.81-14.8,0-11.73.62-20l.13-2a7.25,7.25,0,0,0-.16-1.28,6,6,0,0,1-.16-1.09q0-1.5,2.07-1.68a89,89,0,0,0,9.12-1.94,43.43,43.43,0,0,1,8.88-1.5,4.67,4.67,0,0,1,.87.13,3.14,3.14,0,0,1,1.94.56c.62.42.94.86.94,1.31,0,.84-1.07,1.25-3.19,1.25a52.77,52.77,0,0,0-8.44,1q-6.25,1.2-7.75,2.44Q335,18.87,334.32,29a.84.84,0,0,0,.69.31,20.2,20.2,0,0,0,5.56-1.19,20.29,20.29,0,0,1,5.63-1.19,6.73,6.73,0,0,1,3.12.82l.5,1.87c.09.17-.46.46-1.62.88a3.79,3.79,0,0,0-2.25-.63A29.36,29.36,0,0,0,340,31a37.91,37.91,0,0,0-5.9,1.87,47.29,47.29,0,0,0-.25,6.38q0,9.43,4.81,9.43a21.94,21.94,0,0,0,6.65-1.53A22.05,22.05,0,0,1,352,45.61Q356,45.61,357.2,47.86Z"/></svg>
