<svg id="Layer_1" data-name="Layer 1" xmlns="http://www.w3.org/2000/svg" width="197.86mm" height="175.79mm" viewBox="0 0 560.85 498.32"><defs><style>.cls-1{fill:#1d1d1b;}.cls-2{fill:#010101;}</style></defs><title>Artboard 10</title><rect class="cls-1" x="464.92" y="225.83" width="78.05" height="157.63" rx="12"/><path class="cls-2" d="M74.35,128.84c-2.65-.26-22.76,4.75-22.76,4.75s-9.71,17.33-11,21.55-7.94,35.78-10.46,43.37S24,215.32,17.58,217.3s1.34,22.26,1.34,22.26l20,8s13.15-5.31,15-6,14.37-9.07,14.37-9.07l19.12-93.41S77,129.1,74.35,128.84Z"/><path class="cls-2" d="M84.92,121.56c11-5,8-8,21-10,4-.61,22.25,6,26.25,6.83.51.11,29,8.4,29,8.4a11.58,11.58,0,0,1,8.38,5.53c2,3.39,7.06,6.73,8.34,11.24,2,7-4,9-5,9-.85,0-25.88,2.19-33.08,2.83a11.46,11.46,0,0,1-3.78-.3c-6.27-1.56-26.29-6.53-27.14-6.53S92.39,147,83.26,146.17a11.54,11.54,0,0,1-9.19-6.31h0a11.53,11.53,0,0,1,5.15-15.45Z"/><path class="cls-2" d="M174.4,189.79c0,13.8-7.16,25.3-14.07,35.66-10.43,15.66-24.25,27.09-43.33,27.09-18.73,0-32.89-9.59-43.37-24.77-7.25-10.5-14-23.8-14-38C59.6,155.14,85.3,127,117,127S174.4,155.14,174.4,189.79Z"/><path class="cls-2" d="M94,269.58c-3.87-6.2-50,3.09-53.2,5.41s-23.72,12.39-23.72,46.45V455.37l36,58.06h94L195.39,501l-5-116.89,18-85.16S196,268.8,184.45,268.8,94,269.58,94,269.58Z"/><path class="cls-2" d="M201,297.8l33.86,31.65,46.26-51.32h24.78l-47.08,85.53s-25.42,25.74-41.94,11.2-61.93-45.68-61.93-45.68l-7.75-27.86L158,269.58l31,6.19Z"/><path class="cls-2" d="M287.42,296.71l7.46,3.27a9.17,9.17,0,0,0,2,.61c3.53.63,14.91,2.39,18.79-.2,4.61-3.09,0,1,2.77-5.66S317,287,318,283.41s2.77-5.14,1.38-7.72,0-5.65,2.31-11.31c1.08-2.65.14-5.42-1.17-7.61a8.82,8.82,0,0,0-7.56-4.23h-8.35s-6,1,.46-20.06c4.27-13.94-.12-14.29-3.59-12.93a8.63,8.63,0,0,0-4.56,4.26c-.85,1.72-2.05,4.3-3.4,7.65-1.24,3-2.31,8.22-7.38,18.51-3.46,7-3.46,6.27-5.07,12.86s0,9.5.35,10.44a8.25,8.25,0,0,1,.34,3.24l-.54,6.58a14,14,0,0,0,.19,3.71l.5,2.62A9.86,9.86,0,0,0,287.42,296.71Z"/><path class="cls-2" d="M94.27,235.51s-2.23,37.94-8.9,47.23S111.32,292,111.32,292L141,288.16s-5.93-13.17-6.67-27.1a146.86,146.86,0,0,0-3.71-25.55Z"/><path class="cls-2" d="M71.11,271.35a1.93,1.93,0,0,0-2-2.33c-7.71.32-31.49,2.41-43.64,16.08C13,299.2,5.36,331.19,3.42,340.11a1.93,1.93,0,0,0,1.89,2.34H9.92l44.32.65a2,2,0,0,0,1.92-1.53Z"/><path class="cls-2" d="M146.22,272.29a1.94,1.94,0,0,1,1.13-2.84c7.43-2.12,30.65-7.6,46.49,1.56,16.32,9.45,33.6,37.43,38.24,45.29a1.94,1.94,0,0,1-1.06,2.82l-4.38,1.44L184.77,335.1a1.94,1.94,0,0,1-2.3-.85Z"/><rect class="cls-1" x="287.64" y="6.38" width="266.15" height="202.71" rx="29.91"/></svg>
