<svg id="Layer_1" data-name="Layer 1" xmlns="http://www.w3.org/2000/svg" width="239.36mm" height="226.01mm" viewBox="0 0 678.51 640.65"><defs><style>.cls-1{fill:#cde1ac;opacity:0.3;}.cls-2{fill:#f8bdaa;stroke:#e0e47b;stroke-miterlimit:10;opacity:0.2;}.cls-3{fill:#1d1d1b;}</style></defs><title>Artboard 27</title><path class="cls-1" d="M367.86,494.78C232.48,437.28,148.66,358.54,161.91,300c6.55-28.94,35.57-47.52,81.89-77.18,32.39-20.75,147.07-94.18,194-67.42C537.4,212.13,288.42,694.06,336.1,716.09c39,18,275.53-272,213.89-339.4C500,322,216.41,520.92,181.76,479.9,139.64,430,530.4,110.75,474.06,37.29,452.74,9.48,369,23.71,201.61,52.17c-55.33,9.4-102.18,19.71-138,28.36"/><ellipse class="cls-2" cx="125.42" cy="529.74" rx="82.88" ry="81.6"/><path class="cls-3" d="M415.29,119.82c0,.62-.22.94-.64.94a4.48,4.48,0,0,0-.83-.42,8.18,8.18,0,0,0-2.9-.3h-1.7c-.6,0-1,.1-1.13.29a2.92,2.92,0,0,0-.36,1.27c-.08.66-.23,1.64-.43,2.94a98.88,98.88,0,0,0-.71,12.27c0,3.22.35,5.4,1.05,6.52,0,.35-.13.53-.38.53-1.32,0-2.15-.75-2.51-2.25a18.93,18.93,0,0,1-.23-3.75c0-2.8.07-4.92.19-6.34,0-.68.16-2.25.41-4.73.2-2,.3-3.55.3-4.72,0-1.43,0-1.78,0-1,0-.38-.19-.56-.49-.56a10.73,10.73,0,0,0-2,.26,11.88,11.88,0,0,1-2,.26,1.86,1.86,0,0,1-1.95-1.2c.25-.42,2.11-.85,5.59-1.27a62.55,62.55,0,0,1,6.34-.49Q415.29,118,415.29,119.82Z"/><path class="cls-3" d="M436.14,143v.19a.71.71,0,0,1-.64.37.91.91,0,0,1-.68-.18q-.3-1.54-5.08-4.9t-6.46-3.35h-2.14v2.32a20,20,0,0,0,.27,2.25,7.92,7.92,0,0,0,.38,2.06,5.14,5.14,0,0,0,.66.94c0,.58-.33.86-1,.86a1.92,1.92,0,0,1-1.65-.78q-.56-.8-.56-7.35c0-.35-.44-.67-1.31-.94s-1.31-.6-1.31-1q0-.82,2.4-1.5a24.66,24.66,0,0,0,.33-3.6c.1-1.87.18-3.08.23-3.63,0-.28.14-1,.34-2.25a10.43,10.43,0,0,0,.22-2.29,2.44,2.44,0,0,0-1-.11c-.54,0-.81-.22-.81-.64a.91.91,0,0,1,.75-1l1.09-.3a2.36,2.36,0,0,1,.49-.82,1.74,1.74,0,0,1,.6-.11,1.23,1.23,0,0,1,.84.41,1.22,1.22,0,0,0,.77.41,4.39,4.39,0,0,0,.52,0A3.26,3.26,0,0,1,424,118a13.32,13.32,0,0,1,7,1.72,6.47,6.47,0,0,1,3.49,5.93,7.35,7.35,0,0,1-1.91,5.25,19.17,19.17,0,0,1-4.65,3.19,1.74,1.74,0,0,0-.53.18,28.82,28.82,0,0,0,3.38,2.44,27.87,27.87,0,0,1,3.75,2.81A4.71,4.71,0,0,1,436.14,143Zm-3.64-17.51a4.85,4.85,0,0,0-2.58-4.39,9.87,9.87,0,0,0-5.16-1.27A8.86,8.86,0,0,0,423,120l-.49.75a4.82,4.82,0,0,0-.6,2.28c-.05,1.38-.1,2.19-.15,2.44a43.63,43.63,0,0,0-.59,6.79,14.74,14.74,0,0,0,3.44,1,5.57,5.57,0,0,0,1.49-.3,9.56,9.56,0,0,0,4.49-2.74A6.74,6.74,0,0,0,432.5,125.52Z"/><path class="cls-3" d="M441.39,119.18a6.79,6.79,0,0,1-.34.64,8.63,8.63,0,0,0-.3,2,126.75,126.75,0,0,0-.86,14.21c0,3.57.38,5.91,1.16,7a2.23,2.23,0,0,1-1.13.49c-1.07,0-1.72-.88-1.95-2.63a29.79,29.79,0,0,1-.3-3.3l.27-17.77a1.59,1.59,0,0,1,.71-1.13,2.07,2.07,0,0,1,1.24-.6,1.86,1.86,0,0,1,.91.4C441.19,118.75,441.39,119,441.39,119.18Z"/><path class="cls-3" d="M460.7,118a.46.46,0,0,1-.34.49l-.71.3c-.35.2-.66,1.33-.94,3.38a31,31,0,0,0-.34,3.91l-.11,11.38a10.85,10.85,0,0,1-.64,3.26c-.52,1.51-1.18,2.26-2,2.26q-1.84,0-3.42-3.42a44.45,44.45,0,0,1-1.78-5.11q-1.14-3.78-3.39-11.31-.42.07-.45.75-.08,1-.6,5.25a42.09,42.09,0,0,0-.41,5.25c0,4,.25,6.35.75,7a3.46,3.46,0,0,1,.41.68,1,1,0,0,1-.55.79,1.79,1.79,0,0,1-1,.37q-1.51,0-1.52-4.91c0-.45,0-1.09-.06-1.91s0-1.47,0-1.92a37,37,0,0,1,.49-4.93,38.14,38.14,0,0,0,.48-5v-4.83a1.32,1.32,0,0,0-.05-.25.81.81,0,0,1-.06-.24c0-.65.64-1,1.91-1a2.36,2.36,0,0,1,2.18,1,6.16,6.16,0,0,1,.3,1.65c.07.6.15,1.21.22,1.84a79.91,79.91,0,0,0,2.7,9.86q2.6,8,3.75,8c.68,0,1-1.34,1-4l-.11-11.27a15.75,15.75,0,0,1,.71-4.43c.62-2.13,1.44-3.19,2.44-3.19A2.19,2.19,0,0,1,460.7,118Z"/><path class="cls-3" d="M477.87,141.64q-.18.42-.45.42A2.26,2.26,0,0,1,477,142a2.26,2.26,0,0,0-.43-.06,16.25,16.25,0,0,0-4.67,1,16.44,16.44,0,0,1-4.67,1q-5.28,0-5.28-8.88,0-7,.37-12l.08-1.19a4.39,4.39,0,0,0-.1-.77,4,4,0,0,1-.09-.66c0-.6.41-.93,1.24-1a53,53,0,0,0,5.47-1.16,26.09,26.09,0,0,1,5.33-.9,2.64,2.64,0,0,1,.52.08,1.8,1.8,0,0,1,1.16.33,1,1,0,0,1,.57.79q0,.75-1.92.75a31.23,31.23,0,0,0-5.06.6c-2.5.48-4.05,1-4.65,1.46q-.3,2.85-.71,8.93a.52.52,0,0,0,.41.19,12,12,0,0,0,3.34-.72,12.23,12.23,0,0,1,3.37-.71,4,4,0,0,1,1.88.49l.3,1.12c.05.1-.28.28-1,.53a2.27,2.27,0,0,0-1.35-.38,17.69,17.69,0,0,0-3.54.68,22.43,22.43,0,0,0-3.54,1.12,28.79,28.79,0,0,0-.15,3.83q0,5.66,2.88,5.66a13,13,0,0,0,4-.92,13.24,13.24,0,0,1,4-.92C476.36,140.29,477.4,140.74,477.87,141.64Z"/><path class="cls-3" d="M503.75,127.51a23.44,23.44,0,0,1-2.51,10.68q-3.12,6.08-8.25,6.08a5.58,5.58,0,0,1-3.53-1.31c-.43.55-.7.82-.82.82a1.56,1.56,0,0,1-.83-.26,19.71,19.71,0,0,1-.52-5.63c0-2.1,0-5.21.11-9.35s.11-7.27.11-9.4v-.6c0-.55.3-.82.9-.82a1.8,1.8,0,0,1,1,.36,1,1,0,0,1,.52.76,3.23,3.23,0,0,1-.26,1.11,2.92,2.92,0,0,0-.26,1.07v1.46a5.6,5.6,0,0,0,1.3-1.84,8.08,8.08,0,0,1,1.76-2.32,5.24,5.24,0,0,1,3.56-1.2,6.6,6.6,0,0,1,6.05,3.34A13.19,13.19,0,0,1,503.75,127.51Zm-2.21-.19a14.26,14.26,0,0,0-1-5.66q-1.32-3.15-4.27-3.15c-1.41,0-2.79.86-4.17,2.58a13.09,13.09,0,0,0-2.36,4.54,17.42,17.42,0,0,0-.6,4.65V138a5,5,0,0,0,.94,3,3.28,3.28,0,0,0,2.77,1.43q3,0,5.37-3.15a14.59,14.59,0,0,0,2.69-5.93A30.66,30.66,0,0,0,501.54,127.32Z"/><path class="cls-3" d="M520.62,129.38a35.38,35.38,0,0,1-.71,6.68c-.58,3-1.34,5.05-2.29,6.07a5.7,5.7,0,0,1-4.27,2,6.72,6.72,0,0,1-4.5-1.35,7.51,7.51,0,0,1-2.44-4.8,42.36,42.36,0,0,1-.23-5.62c0-1.23.08-3.06.23-5.5s.23-4.25.23-5.45a3.07,3.07,0,0,0-.23-1,3.07,3.07,0,0,1-.23-.92c0-.25.21-.51.62-.79a2.08,2.08,0,0,1,1-.41,5.9,5.9,0,0,0,1.28,0c.32.08.46.37.41.87-.17.7-.36,1.61-.56,2.74-.48,4.63-.71,7.49-.71,8.56v4.89a10,10,0,0,0,1,4.54,3.85,3.85,0,0,0,3.55,2.48q3.91,0,5.3-7.55a64.29,64.29,0,0,0,.68-10.7l.07-1.58a12.24,12.24,0,0,0,0-1.65,4.52,4.52,0,0,0-.38-1.49,4,4,0,0,1-.3-.69,1.7,1.7,0,0,1,.28-.85.81.81,0,0,1,.66-.47,2,2,0,0,1,1,.36c.39.24.58.48.58.73Z"/><path class="cls-3" d="M537.68,129.38a34.57,34.57,0,0,1-.71,6.68c-.57,3-1.34,5.05-2.29,6.07a5.7,5.7,0,0,1-4.27,2,6.72,6.72,0,0,1-4.5-1.35,7.55,7.55,0,0,1-2.44-4.8,43,43,0,0,1-.22-5.62c0-1.23.07-3.06.22-5.5s.23-4.25.23-5.45a3.07,3.07,0,0,0-.23-1,3,3,0,0,1-.22-.92c0-.25.2-.51.62-.79a2,2,0,0,1,1-.41,5.74,5.74,0,0,0,1.27,0c.33.08.46.37.41.87-.17.7-.36,1.61-.56,2.74-.47,4.63-.71,7.49-.71,8.56v4.89a10,10,0,0,0,1,4.54,3.86,3.86,0,0,0,3.55,2.48c2.62,0,4.38-2.52,5.31-7.55a64.5,64.5,0,0,0,.67-10.7l.07-1.58a10.78,10.78,0,0,0,0-1.65,4.28,4.28,0,0,0-.38-1.49,4,4,0,0,1-.3-.69,1.8,1.8,0,0,1,.28-.85.81.81,0,0,1,.66-.47,2,2,0,0,1,1,.36c.39.24.58.48.58.73Z"/><path class="cls-3" d="M555.08,140c0,1.4-.87,2.48-2.62,3.23a11.3,11.3,0,0,1-4.5.9,15,15,0,0,1-4.84-.9q-3.37-1.17-3.37-2.89c0-.63.3-.94.9-.94a2.73,2.73,0,0,1,1.65.83c.87.82,1.35,1.26,1.42,1.31a8.7,8.7,0,0,0,4.61.94q4.27,0,4.28-2.25c0-.7-.61-1.57-1.84-2.59l-2.81-2a40.47,40.47,0,0,1-5.06-4,8.28,8.28,0,0,1-2.37-5.85,9.66,9.66,0,0,1,1.77-5.63,5.77,5.77,0,0,1,4.91-2.85,5.48,5.48,0,0,1,4.31,2.14,9.53,9.53,0,0,1,2.06,4.54c0,.6.13,1.51.3,2.74l.3,1.35c0,2-.48,3-1.46,3a1.13,1.13,0,0,1-.77-.43,1.26,1.26,0,0,1-.39-.81,8.33,8.33,0,0,1,.21-1.54,8.94,8.94,0,0,0,.2-1.54,11.83,11.83,0,0,0-.82-4.57q-1.08-2.7-3.27-2.7a4.42,4.42,0,0,0-3.66,1.93,6.81,6.81,0,0,0-1.47,4.22q0,3.08,3.21,5.85l5.95,4.31Q555.08,138.15,555.08,140Z"/><path class="cls-3" d="M282.75,75q-2.56,15.87-13.44,15.25a16.4,16.4,0,0,1-9.94-3.88l-.44.31v2.57a15.13,15.13,0,0,0,.63,5.43,11.25,11.25,0,0,0,.69,1.28,4.71,4.71,0,0,1,.62,1.35,2.12,2.12,0,0,1-.56,1.4,1.76,1.76,0,0,1-1.38.66,2.81,2.81,0,0,1-2.62-1.25,7.67,7.67,0,0,1-.63-3q-.18-3.18-.18-6.44c0-1.25.09-3.12.28-5.62s.27-4.41.25-5.72.07-3.25.28-5.81.31-4.47.31-5.72V59.87a6.48,6.48,0,0,0-.22-1.37,7.42,7.42,0,0,1-.22-1.38c0-.79.54-1.19,1.63-1.19a2.18,2.18,0,0,1,1.78.94,3.23,3.23,0,0,1,.72,2,14.31,14.31,0,0,1-.28,2.31,13.23,13.23,0,0,0-.28,2.32v1.62l2.86-5a10.49,10.49,0,0,1,8.92-4.69,10,10,0,0,1,9,4.94,19.46,19.46,0,0,1,2.49,10.31A30.94,30.94,0,0,1,282.75,75Zm-2.82-3.54a20.59,20.59,0,0,0-1.68-8.58q-2.17-4.82-6.42-4.82-5.47,0-9.28,7.31a26.62,26.62,0,0,0-3.24,12.31V81a2.38,2.38,0,0,1,.94-.32q.44,0,.78.63a2.48,2.48,0,0,0,.59.82c0,.13-.1.17-.19.13s-.12,0-.12.13a2.7,2.7,0,0,0,.5,1.13,8.25,8.25,0,0,0,7.47,3.79c3.16,0,5.52-1,7.1-3.13,1.21-1.55,2.16-4,2.87-7.39A31.87,31.87,0,0,0,279.93,71.46Z"/><path class="cls-3" d="M318.5,77.47a29,29,0,0,1-3.94,15.29q-4.63,7.6-12.81,7.61a15.14,15.14,0,0,1-4.82-.94q-10.44-3.3-10.43-18.72a32.57,32.57,0,0,1,4-16.16q4.74-8.62,13.06-8.62,7.24,0,11.44,7.43A28.15,28.15,0,0,1,318.5,77.47Zm-3.5-.56q0-13.86-9.23-17a5.09,5.09,0,0,0-1.75-.37q-4,0-7.85,3.68-6.56,6.24-6.55,19.28a22.21,22.21,0,0,0,.5,3.74q1.06,5.37,3.49,8,2.86,3,8,3,7.11,0,10.6-7A29.23,29.23,0,0,0,315,76.91Z"/><path class="cls-3" d="M352.81,98.31v.31a1.18,1.18,0,0,1-1.07.63c-.58,0-1-.11-1.12-.32q-.51-2.55-8.46-8.15t-10.78-5.6h-3.57v3.88a33.94,33.94,0,0,0,.45,3.75,13.62,13.62,0,0,0,.64,3.44,9,9,0,0,0,1.1,1.56c0,1-.55,1.44-1.63,1.44a3.16,3.16,0,0,1-2.75-1.32q-.93-1.31-.94-12.25c0-.58-.73-1.1-2.18-1.56s-2.19-1-2.19-1.62q0-1.38,4-2.5a39.55,39.55,0,0,0,.56-6c.17-3.13.29-5.15.38-6.07,0-.45.22-1.7.56-3.75a17.51,17.51,0,0,0,.37-3.81,4.29,4.29,0,0,0-1.65-.19c-.9,0-1.35-.35-1.35-1.06a1.51,1.51,0,0,1,1.25-1.62c.59-.17,1.19-.34,1.82-.5a3.91,3.91,0,0,1,.81-1.38,3.36,3.36,0,0,1,1-.19,2,2,0,0,1,1.4.69,2,2,0,0,0,1.29.69,5,5,0,0,0,.87-.1,6,6,0,0,1,.88-.09,22.13,22.13,0,0,1,11.68,2.88A10.77,10.77,0,0,1,350,69.37a12.25,12.25,0,0,1-3.19,8.75q-2,2.19-7.75,5.31a3.54,3.54,0,0,0-.88.32,50.14,50.14,0,0,0,5.63,4.06,46.24,46.24,0,0,1,6.25,4.69Q352.93,95.37,352.81,98.31Zm-6.06-29.19a8.08,8.08,0,0,0-4.3-7.31,16.45,16.45,0,0,0-8.6-2.13,15.39,15.39,0,0,0-3,.25l-.81,1.25a8.25,8.25,0,0,0-1,3.82c-.08,2.29-.16,3.64-.24,4.06a71.1,71.1,0,0,0-1,11.31,24.43,24.43,0,0,0,5.73,1.75,9.34,9.34,0,0,0,2.49-.5,16,16,0,0,0,7.48-4.56A11.23,11.23,0,0,0,346.75,69.12Z"/><path class="cls-3" d="M378.81,59.62c0,1-.36,1.56-1.07,1.56a6.8,6.8,0,0,0-1.38-.68c-.63-.34-2.24-.5-4.83-.5H368.7c-1,0-1.63.15-1.88.46a5.05,5.05,0,0,0-.6,2.13c-.14,1.1-.38,2.74-.72,4.91a166.23,166.23,0,0,0-1.19,20.43q0,8.07,1.75,10.88,0,.87-.63.87-3.3,0-4.18-3.75a31.45,31.45,0,0,1-.38-6.25c0-4.66.11-8.18.31-10.56.05-1.12.27-3.75.69-7.87.33-3.3.5-5.92.5-7.88,0-2.37,0-3,.06-1.75,0-.62-.31-.94-.81-.94a19.16,19.16,0,0,0-3.34.44,19.24,19.24,0,0,1-3.35.44,3.11,3.11,0,0,1-3.25-2c.42-.71,3.52-1.42,9.32-2.13q7.25-.81,10.56-.81Q378.8,56.62,378.81,59.62Z"/><path class="cls-3" d="M406.43,58.93a2.15,2.15,0,0,1-1.56.69,7.77,7.77,0,0,1-1.12-.12,7,7,0,0,0-1.19-.13,31.29,31.29,0,0,0-7,1.07,59.09,59.09,0,0,1-7,1.5l-1.31,11.79a20.37,20.37,0,0,0-.13,2.14c0,.92.31,1.38.94,1.38a2.38,2.38,0,0,0,.56-.07,41,41,0,0,1,8.69-1.5c2.58,0,3.46,0,2.62-.12a2.62,2.62,0,0,1,2,1.25l.19,1.56a.64.64,0,0,1-.62.44,7.33,7.33,0,0,0-1.16.12,6.3,6.3,0,0,1-1.09.13,42.14,42.14,0,0,0-12.13,2.06,58,58,0,0,0-.44,9.19c0,3.92.15,6.1.44,6.56a6.57,6.57,0,0,0,.6.75,1.09,1.09,0,0,1,.34.63q0,.44-.69,1a2,2,0,0,1-1.06.54s-.67-.34-1.88-1a26.11,26.11,0,0,1-1.31-9.07q0-4.43.72-13.15t.72-13.16a.94.94,0,0,0-.88-1.06,5.45,5.45,0,0,1-1.62-.44c-.63-.42-.94-.79-.94-1.12a1.88,1.88,0,0,1,.56-1.25,5.53,5.53,0,0,1,1.57-.19,2,2,0,0,0,1.43-.5,3.6,3.6,0,0,0,.13-.94c0-.62.42-1.19,1.25-1.69a3.69,3.69,0,0,1,1.69-.56c.41,0,.64.27.68.81v1.32a1,1,0,0,0,.44.62l5.94-1.25a32.4,32.4,0,0,1,6-.69A6.91,6.91,0,0,1,406.43,58.93Z"/><path class="cls-3" d="M438.06,77.47a28.88,28.88,0,0,1-3.94,15.29q-4.62,7.6-12.81,7.61a15,15,0,0,1-4.81-.94q-10.44-3.3-10.44-18.72a32.57,32.57,0,0,1,4-16.16q4.74-8.62,13.06-8.62,7.25,0,11.44,7.43A28.15,28.15,0,0,1,438.06,77.47Zm-3.5-.56q0-13.86-9.23-17a5,5,0,0,0-1.74-.37q-4,0-7.86,3.68-6.54,6.24-6.55,19.28a22.21,22.21,0,0,0,.5,3.74q1.06,5.37,3.49,8,2.88,3,8.05,3,7.09,0,10.6-7A29.36,29.36,0,0,0,434.56,76.91Z"/><path class="cls-3" d="M464.81,97.25a36.58,36.58,0,0,1-13,2.18c-3.59,0-6-1.39-7.38-4.18-1-2-1.43-5-1.43-9q0-3.89.59-11.57t.59-11.5q0-.81-.12-2.37c-.09-1-.13-1.83-.13-2.38a12.14,12.14,0,0,1,.07-1.31,2.31,2.31,0,0,1,1.87-.81q2.19,0,2.19,5.12,0,4.44-.81,13.32t-.82,13.31q0,8.43,5.63,8.44a19.22,19.22,0,0,0,5.28-1.07,19.51,19.51,0,0,1,5.28-1.06,1.8,1.8,0,0,1,1.59.91A3.49,3.49,0,0,1,464.81,97.25Z"/><path class="cls-3" d="M473.75,58.56a10.52,10.52,0,0,1-.57,1.06,15,15,0,0,0-.5,3.31,213.15,213.15,0,0,0-1.43,23.69q0,8.94,1.93,11.69a3.74,3.74,0,0,1-1.87.81c-1.79,0-2.88-1.46-3.25-4.37a48.21,48.21,0,0,1-.5-5.5L468,59.62a2.66,2.66,0,0,1,1.18-1.87,3.43,3.43,0,0,1,2.07-1,3.06,3.06,0,0,1,1.53.65C473.42,57.84,473.75,58.23,473.75,58.56Z"/><path class="cls-3" d="M504.62,96c-.21.45-.46.68-.75.68a4.07,4.07,0,0,1-.72-.09,4.07,4.07,0,0,0-.72-.09,27.31,27.31,0,0,0-7.78,1.68,27.05,27.05,0,0,1-7.78,1.69q-8.81,0-8.81-14.79,0-11.73.62-20l.13-2a7.25,7.25,0,0,0-.16-1.28,6.92,6.92,0,0,1-.15-1.09c0-1,.68-1.56,2.06-1.69a85.34,85.34,0,0,0,9.12-1.93,43.54,43.54,0,0,1,8.88-1.5,4.4,4.4,0,0,1,.87.12,3.08,3.08,0,0,1,1.94.57,1.67,1.67,0,0,1,.94,1.31c0,.83-1.06,1.25-3.19,1.25a51.62,51.62,0,0,0-8.44,1c-4.16.79-6.75,1.6-7.75,2.44q-.49,4.74-1.18,14.87a.81.81,0,0,0,.68.31A20.15,20.15,0,0,0,488,76.25a19.81,19.81,0,0,1,5.62-1.19,6.79,6.79,0,0,1,3.13.81l.5,1.88c.08.16-.46.45-1.63.87a3.74,3.74,0,0,0-2.25-.62,29.11,29.11,0,0,0-5.91,1.12,37.62,37.62,0,0,0-5.9,1.88,47.1,47.1,0,0,0-.25,6.37q0,9.43,4.81,9.44a22.05,22.05,0,0,0,6.66-1.53,21.94,21.94,0,0,1,6.65-1.53Q503.44,93.75,504.62,96Z"/></svg>
