<svg id="Layer_1" data-name="Layer 1" xmlns="http://www.w3.org/2000/svg" width="1183" height="1699" viewBox="0 0 1183 1699"><defs><style>.cls-1{fill:#f3f9e4;}.cls-2,.cls-3{fill:#003837;stroke:#e4ff7f;stroke-miterlimit:10;}.cls-2{opacity:0.5;}.cls-3{opacity:0.2;}</style></defs><title>Artboard 10</title><rect class="cls-1" width="1183" height="1699"/><path class="cls-2" d="M673.18,1132.2c-272.8-123.68-441.71-293-415-419,13.2-62.24,71.67-102.21,165-166,65.27-44.61,296.37-202.57,391-145,200.63,122.05-301.08,1158.62-205,1206,78.59,38.76,555.21-585.07,431-730-100.78-117.59-672.19,310.23-742,222-84.88-107.27,702.52-794,589-952-43-59.81-211.65-29.2-549,32-111.5,20.23-205.9,42.39-278,61"/><ellipse class="cls-3" cx="355.5" cy="1370" rx="167" ry="175.5"/></svg>
