<svg id="Layer_1" data-name="Layer 1" xmlns="http://www.w3.org/2000/svg" width="77.96mm" height="20.47mm" viewBox="0 0 220.99 58.02"><defs><style>.cls-1{fill:#1d1d1b;}.cls-2{fill:#f2bfda;}.cls-3{fill:#fef6b5;}.cls-4{fill:#cde1ac;}.cls-5{fill:#f8bdaa;}.cls-6{fill:#f4a8b6;}</style></defs><title>Artboard 8</title><path class="cls-1" d="M22,14a8,8,0,0,1-3,6.67q-3,2.34-8.46,2.34H7.25V34.28H3.93V5.72h7.4Q22,5.72,22,14ZM7.25,20.2h3q4.42,0,6.39-1.43a5.24,5.24,0,0,0,2-4.57A4.92,4.92,0,0,0,16.74,10C15.5,9.06,13.57,8.59,11,8.59H7.25Z"/><path class="cls-1" d="M52.79,20q0,6.86-3.46,10.78t-9.64,3.93q-6.31,0-9.74-3.86T26.52,19.92q0-7,3.44-10.81t9.77-3.84q6.15,0,9.61,3.91T52.79,20ZM30,20q0,5.8,2.47,8.8t7.18,3q4.74,0,7.17-3T49.28,20c0-3.84-.81-6.75-2.41-8.74s-4-3-7.14-3-5.57,1-7.22,3S30,16.15,30,20Z"/><path class="cls-1" d="M62.48,22.4V34.28H59.16V5.72H67c3.51,0,6.09.67,7.77,2a7.32,7.32,0,0,1,2.51,6.06q0,5.67-5.75,7.66l7.76,12.83H75.35L68.44,22.4Zm0-2.85H67c2.35,0,4.06-.47,5.16-1.4A5.2,5.2,0,0,0,73.83,14a4.79,4.79,0,0,0-1.67-4.08C71,9.05,69.26,8.63,66.8,8.63H62.48Z"/><path class="cls-1" d="M92.68,34.28H89.36V8.67h-9V5.72h21.41v3h-9Z"/><path class="cls-1" d="M109.34,34.28H106V5.72h15.91v3H109.34V19.12h11.83v2.95H109.34Z"/><path class="cls-1" d="M151.45,20q0,6.86-3.47,10.78t-9.64,3.93q-6.32,0-9.74-3.86t-3.42-10.89q0-7,3.43-10.81t9.77-3.84q6.15,0,9.61,3.91T151.45,20Zm-22.76,0q0,5.8,2.47,8.8t7.18,3q4.74,0,7.17-3T147.93,20q0-5.76-2.41-8.74c-1.61-2-4-3-7.14-3s-5.57,1-7.22,3S128.69,16.15,128.69,20Z"/><path class="cls-1" d="M157.81,34.28V5.72h3.32V31.27h12.6v3Z"/><path class="cls-1" d="M178.57,34.28V5.72h3.32V34.28Z"/><path class="cls-1" d="M205.64,34.28H189.73V5.72h15.91v3H193.05v9.2h11.83V20.8H193.05V31.31h12.59Z"/><path class="cls-2" d="M92.76,57.85l-1.78,0V43.1c-1.61-.11-3.23-.23-4.84-.37V41c3.82,0,7.64.08,11.46.1v2.36c-1.61-.07-3.23-.15-4.84-.25Z"/><path class="cls-3" d="M101.68,52.89v5H99.9V41.11l4.19,0a4.94,4.94,0,0,1,4.16,1.79,8,8,0,0,1,1.34,4.85c0,2.75-1,4.17-3.07,4.85a18.44,18.44,0,0,0,4.15,5.3h-2.1a17.43,17.43,0,0,1-3.7-4.84C103.8,53,102.74,53,101.68,52.89Zm0-1.62,2.43.15a3.56,3.56,0,0,0,2.76-.74,3.71,3.71,0,0,0,.88-2.81,4.86,4.86,0,0,0-.89-3.16A3.7,3.7,0,0,0,104,43.63l-2.31-.06Z"/><path class="cls-4" d="M113.13,57.92q0-3.69,0-16.78h1.78V57.92Z"/><path class="cls-5" d="M131,57.87h-2c-2.79-2.8-5.57-6.61-8.36-12.89h-.08c.11,2.23.17,4,.17,5.49v7.43H119.1V41.13h2c2.78,7.08,5.56,11.59,8.33,14.89h.09c0-.16-.05-.63-.1-1.56s-.06-1.68-.05-2.13V41.09H131Z"/><path class="cls-6" d="M143.77,57.8l-8.52.05V41.07l8.52,0v1.86l-6.75.28v6q3.18-.3,6.34-.63v1.73c-2.11.22-4.22.44-6.34.64v5.56l6.75-.28Z"/><path class="cls-2" d="M164.92,47.51a12.61,12.61,0,0,1-2.06,7.32,6.8,6.8,0,0,1-5.91,2.9l-4.23,0V41l4.68,0a9,9,0,0,1,5.54,1.48C164.26,43.44,164.92,44.93,164.92,47.51Zm-1.88.22c0-2.18-.5-3.49-1.5-4.33a6.48,6.48,0,0,0-4.46-1.12l-2.59.1V55.79l2.17-.08a5.87,5.87,0,0,0,4.78-2.28A9.6,9.6,0,0,0,163,47.73Z"/><path class="cls-3" d="M179.87,40.86v8.73a10.91,10.91,0,0,1-1.58,5.94,5,5,0,0,1-8.61.12A10.12,10.12,0,0,1,168.17,50V40.89H170v9.18A6.82,6.82,0,0,0,171,54a3.73,3.73,0,0,0,6.06-.15,7.6,7.6,0,0,0,1-4.15V40.86Z"/><path class="cls-4" d="M195.46,40.89v9.22a9.54,9.54,0,0,1-1.58,5.56A5.13,5.13,0,0,1,189.54,58a4.83,4.83,0,0,1-4.27-2.51,11.4,11.4,0,0,1-1.51-6V40.86h1.78v8.85a7.44,7.44,0,0,0,1,4.13,3.57,3.57,0,0,0,3.08,1.64,3.4,3.4,0,0,0,3-1.48,6.76,6.76,0,0,0,1.05-4V40.89Z"/><path class="cls-5" d="M208.13,53.32a4.14,4.14,0,0,1-1.46,3.38,6.1,6.1,0,0,1-4,1.32,7.11,7.11,0,0,1-4.18-1V54.54a9.45,9.45,0,0,0,2.05,1,8.24,8.24,0,0,0,2.2.43,3.77,3.77,0,0,0,2.67-.65,2.49,2.49,0,0,0,.9-2.08,3.39,3.39,0,0,0-.32-1.53A3.82,3.82,0,0,0,205,50.45,15.46,15.46,0,0,0,202.67,49a9.82,9.82,0,0,1-3-2.4,4.45,4.45,0,0,1-.91-2.74A2.43,2.43,0,0,1,200,41.56a6.86,6.86,0,0,1,3.51-.8,8.9,8.9,0,0,1,4.19.9c-.18.55-.37,1.09-.55,1.62a8.5,8.5,0,0,0-3.68-1.09,3.8,3.8,0,0,0-2.21.4,1.54,1.54,0,0,0-.79,1.44,2.6,2.6,0,0,0,.29,1.28,3.35,3.35,0,0,0,1,1.07,17.21,17.21,0,0,0,2.13,1.32,10.06,10.06,0,0,1,3.3,2.63A5,5,0,0,1,208.13,53.32Z"/></svg>
