<svg id="Layer_1" data-name="Layer 1" xmlns="http://www.w3.org/2000/svg" width="239.36mm" height="226.01mm" viewBox="0 0 678.51 640.65"><defs><style>.cls-1{fill:#662483;opacity:0.05;}.cls-2{fill:#cde1ac;opacity:0.3;}.cls-3{fill:#f8bdaa;stroke:#e0e47b;stroke-miterlimit:10;opacity:0.2;}.cls-4{fill:#1d1d1b;}</style></defs><title>Artboard 27</title><rect class="cls-1" x="1.28" y="0.76" width="676.68" height="639.5"/><path class="cls-2" d="M410.56,337.53C239.16,301.39,133,251.91,149.81,215.09c8.29-18.18,45-29.86,103.67-48.5,41-13,186.22-59.19,245.68-42.37C625.22,159.88,310,462.77,370.35,476.62c49.38,11.32,348.86-171,270.81-213.31C577.84,229,218.81,354,174.94,328.18,121.61,296.83,616.35,96.17,545,50c-27-17.48-133-8.54-345,9.35C130,65.26,70.7,71.74,25.4,77.17"/><ellipse class="cls-3" cx="263.76" cy="491.21" rx="82.88" ry="81.6"/><path class="cls-4" d="M264.69,316c0,.62-.22.94-.64.94a4.48,4.48,0,0,0-.83-.42,8.18,8.18,0,0,0-2.9-.3h-1.7c-.6,0-1,.1-1.13.28a2.92,2.92,0,0,0-.35,1.28c-.09.66-.24,1.64-.44,2.94a100.86,100.86,0,0,0-.71,12.27c0,3.22.35,5.4,1.05,6.52,0,.35-.13.53-.38.53-1.32,0-2.15-.75-2.51-2.25a18.93,18.93,0,0,1-.23-3.75c0-2.8.07-4.92.19-6.34,0-.68.16-2.25.41-4.73.2-2,.3-3.55.3-4.72,0-1.43,0-1.78,0-1.05,0-.38-.19-.56-.49-.56a10.83,10.83,0,0,0-2,.26,11.88,11.88,0,0,1-2,.26,1.86,1.86,0,0,1-2-1.2c.25-.42,2.11-.85,5.59-1.27a62.55,62.55,0,0,1,6.34-.49Q264.69,314.15,264.69,316Z"/><path class="cls-4" d="M285.54,339.16v.19a.71.71,0,0,1-.64.37.91.91,0,0,1-.68-.18q-.3-1.55-5.07-4.9c-3.19-2.23-5.34-3.35-6.47-3.35h-2.14v2.32a20,20,0,0,0,.27,2.25,7.92,7.92,0,0,0,.38,2.06,5.14,5.14,0,0,0,.66.94c0,.58-.33.86-1,.86a1.92,1.92,0,0,1-1.65-.78q-.56-.79-.56-7.35c0-.35-.44-.67-1.31-.94s-1.31-.6-1.31-1q0-.82,2.4-1.5a24.66,24.66,0,0,0,.33-3.6c.1-1.87.18-3.08.23-3.63,0-.28.14-1,.34-2.25a10.43,10.43,0,0,0,.22-2.29,2.41,2.41,0,0,0-1-.11c-.54,0-.81-.22-.81-.64a.91.91,0,0,1,.75-1l1.09-.3a2.36,2.36,0,0,1,.49-.82,1.74,1.74,0,0,1,.6-.11,1.23,1.23,0,0,1,.84.41,1.22,1.22,0,0,0,.77.41,3.16,3.16,0,0,0,.52-.06,4.52,4.52,0,0,1,.53-.05,13.32,13.32,0,0,1,7,1.72,6.47,6.47,0,0,1,3.49,5.93,7.35,7.35,0,0,1-1.91,5.25,19.17,19.17,0,0,1-4.65,3.19,1.74,1.74,0,0,0-.53.18,28.82,28.82,0,0,0,3.38,2.44,27.87,27.87,0,0,1,3.75,2.81A4.71,4.71,0,0,1,285.54,339.16Zm-3.64-17.51a4.85,4.85,0,0,0-2.58-4.39,9.87,9.87,0,0,0-5.16-1.27,8.86,8.86,0,0,0-1.79.15l-.49.75a4.82,4.82,0,0,0-.6,2.28c0,1.38-.1,2.19-.14,2.44a43.34,43.34,0,0,0-.6,6.79,14.74,14.74,0,0,0,3.44,1.05,5.57,5.57,0,0,0,1.49-.3,9.56,9.56,0,0,0,4.49-2.74A6.74,6.74,0,0,0,281.9,321.65Z"/><path class="cls-4" d="M290.79,315.31a6.79,6.79,0,0,1-.34.64,8.63,8.63,0,0,0-.3,2,126.75,126.75,0,0,0-.86,14.21c0,3.57.38,5.91,1.16,7a2.23,2.23,0,0,1-1.13.49c-1.07,0-1.72-.88-1.95-2.63a29.79,29.79,0,0,1-.3-3.3l.27-17.77a1.59,1.59,0,0,1,.71-1.13,2.07,2.07,0,0,1,1.24-.6,1.83,1.83,0,0,1,.92.4C290.59,314.88,290.79,315.11,290.79,315.31Z"/><path class="cls-4" d="M310.1,314.11a.46.46,0,0,1-.34.49l-.71.3c-.35.2-.66,1.33-.94,3.38a31,31,0,0,0-.34,3.91l-.11,11.38a10.85,10.85,0,0,1-.64,3.26c-.52,1.5-1.18,2.26-2,2.26q-1.85,0-3.42-3.42a44.1,44.1,0,0,1-1.78-5.12q-1.14-3.76-3.39-11.3-.42.08-.45.75-.08,1-.6,5.25a42.09,42.09,0,0,0-.41,5.25c0,4,.25,6.35.75,7a3.46,3.46,0,0,1,.41.68,1,1,0,0,1-.55.79,1.79,1.79,0,0,1-1,.37q-1.51,0-1.52-4.91c0-.45,0-1.09-.05-1.91S293,331,293,330.57a36.8,36.8,0,0,1,.49-4.93,38.14,38.14,0,0,0,.48-5v-4.83a1.19,1.19,0,0,0-.05-.25.81.81,0,0,1-.06-.24c0-.65.64-1,1.91-1a2.36,2.36,0,0,1,2.18,1,6.16,6.16,0,0,1,.3,1.65c.07.6.15,1.21.22,1.84a79.91,79.91,0,0,0,2.7,9.86q2.59,7.95,3.75,7.95c.68,0,1-1.34,1-4l-.11-11.27a15.75,15.75,0,0,1,.71-4.43c.62-2.13,1.44-3.19,2.44-3.19A2.19,2.19,0,0,1,310.1,314.11Z"/><path class="cls-4" d="M327.27,337.77q-.18.42-.45.42a2.26,2.26,0,0,1-.43-.06,2.26,2.26,0,0,0-.43-.06,16.25,16.25,0,0,0-4.67,1,16.44,16.44,0,0,1-4.67,1q-5.28,0-5.28-8.88,0-7,.37-12l.08-1.2a4.41,4.41,0,0,0-.1-.76,4,4,0,0,1-.09-.66c0-.6.41-.93,1.24-1a53,53,0,0,0,5.47-1.16,26.09,26.09,0,0,1,5.33-.9,2.64,2.64,0,0,1,.52.08,1.8,1.8,0,0,1,1.16.33,1,1,0,0,1,.57.79q0,.75-1.92.75a31.23,31.23,0,0,0-5.06.6c-2.5.48-4.05,1-4.65,1.46q-.3,2.85-.71,8.93a.52.52,0,0,0,.41.19,12,12,0,0,0,3.34-.72,12.23,12.23,0,0,1,3.37-.71,4,4,0,0,1,1.88.49l.3,1.12c0,.1-.28.28-1,.53a2.27,2.27,0,0,0-1.35-.38,17.69,17.69,0,0,0-3.54.68,22.43,22.43,0,0,0-3.54,1.12,28.79,28.79,0,0,0-.15,3.83q0,5.65,2.88,5.66a13.29,13.29,0,0,0,4-.92,13.24,13.24,0,0,1,4-.92C325.76,336.42,326.8,336.87,327.27,337.77Z"/><path class="cls-4" d="M353.15,323.64a23.44,23.44,0,0,1-2.51,10.68q-3.12,6.07-8.25,6.08a5.6,5.6,0,0,1-3.53-1.31c-.42.55-.7.82-.82.82a1.58,1.58,0,0,1-.83-.26,19.71,19.71,0,0,1-.52-5.63c0-2.1,0-5.21.11-9.35s.11-7.27.11-9.4v-.6c0-.55.3-.82.9-.82a1.83,1.83,0,0,1,1,.35,1,1,0,0,1,.52.77,3.23,3.23,0,0,1-.26,1.11,2.92,2.92,0,0,0-.26,1.07v1.46a5.73,5.73,0,0,0,1.31-1.84,7.9,7.9,0,0,1,1.75-2.32,5.24,5.24,0,0,1,3.56-1.2,6.63,6.63,0,0,1,6.06,3.34A13.28,13.28,0,0,1,353.15,323.64Zm-2.21-.19a14.26,14.26,0,0,0-1-5.66c-.87-2.1-2.3-3.15-4.27-3.15q-2.1,0-4.17,2.58a13.09,13.09,0,0,0-2.36,4.54,17.42,17.42,0,0,0-.6,4.65v7.76a5,5,0,0,0,.94,3,3.28,3.28,0,0,0,2.77,1.43q3,0,5.37-3.15a14.74,14.74,0,0,0,2.7-5.93A30.66,30.66,0,0,0,350.94,323.45Z"/><path class="cls-4" d="M370,325.51a34.57,34.57,0,0,1-.71,6.68c-.57,3-1.34,5.05-2.29,6.07a5.7,5.7,0,0,1-4.27,1.95,6.72,6.72,0,0,1-4.5-1.35,7.55,7.55,0,0,1-2.44-4.8,43,43,0,0,1-.22-5.62c0-1.23.07-3.06.22-5.5s.23-4.25.23-5.45a3.07,3.07,0,0,0-.23-1,3,3,0,0,1-.22-.92c0-.25.2-.51.61-.79a2.07,2.07,0,0,1,1-.41,5.74,5.74,0,0,0,1.27,0c.33.08.46.37.41.87-.17.7-.36,1.61-.56,2.74-.47,4.63-.71,7.49-.71,8.56v4.88a10.06,10.06,0,0,0,1,4.55,3.85,3.85,0,0,0,3.55,2.48c2.62,0,4.38-2.52,5.31-7.55a65.62,65.62,0,0,0,.67-10.7l.07-1.58a10.78,10.78,0,0,0,0-1.65,4.28,4.28,0,0,0-.38-1.49,4,4,0,0,1-.3-.69,1.7,1.7,0,0,1,.28-.85.81.81,0,0,1,.66-.47,2,2,0,0,1,1,.36c.39.24.58.48.58.73Z"/><path class="cls-4" d="M387.09,325.51a34.64,34.64,0,0,1-.72,6.68c-.57,3-1.33,5.05-2.28,6.07a5.73,5.73,0,0,1-4.28,1.95,6.72,6.72,0,0,1-4.5-1.35,7.55,7.55,0,0,1-2.44-4.8,43,43,0,0,1-.22-5.62c0-1.23.07-3.06.22-5.5s.23-4.25.23-5.45a3.07,3.07,0,0,0-.23-1,3,3,0,0,1-.22-.92c0-.25.2-.51.62-.79a2,2,0,0,1,1-.41,5.74,5.74,0,0,0,1.27,0q.49.12.42.87c-.18.7-.37,1.61-.57,2.74-.47,4.63-.71,7.49-.71,8.56v4.88a10.06,10.06,0,0,0,1,4.55,3.86,3.86,0,0,0,3.55,2.48q3.93,0,5.31-7.55a64.5,64.5,0,0,0,.67-10.7l.08-1.58a12.05,12.05,0,0,0,0-1.65,4.28,4.28,0,0,0-.38-1.49,4,4,0,0,1-.3-.69,1.8,1.8,0,0,1,.28-.85.81.81,0,0,1,.66-.47,1.94,1.94,0,0,1,1,.36c.39.24.59.48.59.73Z"/><path class="cls-4" d="M404.49,336.16c0,1.4-.88,2.48-2.63,3.23a11.3,11.3,0,0,1-4.5.9,15,15,0,0,1-4.84-.9q-3.37-1.17-3.37-2.89c0-.63.3-.94.9-.94a2.73,2.73,0,0,1,1.65.83c.87.82,1.35,1.26,1.42,1.31a8.72,8.72,0,0,0,4.62.94c2.84,0,4.27-.75,4.27-2.25,0-.7-.61-1.57-1.84-2.59l-2.81-2a40.47,40.47,0,0,1-5.06-4,8.28,8.28,0,0,1-2.37-5.85,9.66,9.66,0,0,1,1.77-5.63,5.77,5.77,0,0,1,4.91-2.85,5.48,5.48,0,0,1,4.31,2.14,9.64,9.64,0,0,1,2.07,4.54,27.15,27.15,0,0,0,.3,2.74l.29,1.35c0,2-.48,3-1.46,3a1.11,1.11,0,0,1-.77-.44,1.22,1.22,0,0,1-.39-.8,8.33,8.33,0,0,1,.21-1.54,8.94,8.94,0,0,0,.2-1.54,11.83,11.83,0,0,0-.82-4.57q-1.08-2.7-3.27-2.7a4.43,4.43,0,0,0-3.66,1.93,6.81,6.81,0,0,0-1.47,4.22q0,3.07,3.21,5.85l5.95,4.31Q404.49,334.29,404.49,336.16Z"/><path class="cls-4" d="M88.37,272.88q-2.57,15.87-13.44,15.25A16.34,16.34,0,0,1,65,284.25l-.43.31v2.57a14.91,14.91,0,0,0,.62,5.43,11.9,11.9,0,0,0,.69,1.29,4.7,4.7,0,0,1,.62,1.34,2.11,2.11,0,0,1-.56,1.41,1.75,1.75,0,0,1-1.37.65A2.82,2.82,0,0,1,61.93,296a7.7,7.7,0,0,1-.62-3q-.2-3.18-.19-6.44c0-1.25.09-3.12.28-5.62s.27-4.41.25-5.72.07-3.25.28-5.81.31-4.47.31-5.72v-5.94a6.48,6.48,0,0,0-.22-1.37,7.19,7.19,0,0,1-.21-1.38c0-.79.54-1.19,1.62-1.19a2.18,2.18,0,0,1,1.78.94,3.23,3.23,0,0,1,.72,2,13.25,13.25,0,0,1-.28,2.31,13.34,13.34,0,0,0-.28,2.32V263l2.86-5a10.49,10.49,0,0,1,8.92-4.69,10,10,0,0,1,9,4.94,19.46,19.46,0,0,1,2.49,10.31A29.49,29.49,0,0,1,88.37,272.88Zm-2.81-3.54a20.59,20.59,0,0,0-1.69-8.58q-2.18-4.81-6.42-4.82-5.48,0-9.28,7.31a26.62,26.62,0,0,0-3.24,12.31v3.32a2.43,2.43,0,0,1,.94-.32c.29,0,.55.22.78.64a2.92,2.92,0,0,0,.59.82q-.06.18-.18.12c-.09,0-.13,0-.13.13a2.85,2.85,0,0,0,.5,1.13,8.25,8.25,0,0,0,7.47,3.79q4.74,0,7.1-3.13c1.21-1.55,2.16-4,2.87-7.39A31.08,31.08,0,0,0,85.56,269.34Z"/><path class="cls-4" d="M124.12,275.35a29,29,0,0,1-3.94,15.29q-4.62,7.61-12.81,7.61a15.38,15.38,0,0,1-4.82-.93Q92.13,294,92.12,278.59a32.57,32.57,0,0,1,4-16.16q4.74-8.61,13.06-8.62,7.25,0,11.44,7.43A28.15,28.15,0,0,1,124.12,275.35Zm-3.5-.56q0-13.86-9.23-17a5.09,5.09,0,0,0-1.75-.37c-2.66,0-5.27,1.23-7.85,3.68q-6.56,6.24-6.55,19.28a22.42,22.42,0,0,0,.5,3.75c.71,3.57,1.87,6.24,3.49,8,1.91,2,4.6,3,8,3,4.73,0,8.27-2.35,10.59-7.05A29.23,29.23,0,0,0,120.62,274.79Z"/><path class="cls-4" d="M158.43,296.19v.31a1.18,1.18,0,0,1-1.07.63c-.58,0-1-.11-1.12-.32q-.51-2.55-8.46-8.15T137,283.06h-3.57v3.88a33.94,33.94,0,0,0,.45,3.75,13.62,13.62,0,0,0,.64,3.44,9,9,0,0,0,1.1,1.56c0,1-.54,1.44-1.63,1.44a3.16,3.16,0,0,1-2.75-1.32q-.93-1.31-.93-12.25,0-.87-2.19-1.56t-2.19-1.62q0-1.38,4-2.5a39.55,39.55,0,0,0,.56-6c.17-3.13.29-5.15.38-6.07,0-.45.23-1.7.56-3.75a17.62,17.62,0,0,0,.38-3.81,4.36,4.36,0,0,0-1.66-.19c-.9,0-1.34-.35-1.34-1.06a1.51,1.51,0,0,1,1.25-1.62c.58-.17,1.18-.34,1.81-.5a3.91,3.91,0,0,1,.81-1.38,3.41,3.41,0,0,1,1-.19,2.09,2.09,0,0,1,1.41.69,2,2,0,0,0,1.28.69,5.79,5.79,0,0,0,.87-.09,5.09,5.09,0,0,1,.88-.1,22.19,22.19,0,0,1,11.69,2.88,10.78,10.78,0,0,1,5.81,9.87,12.19,12.19,0,0,1-3.19,8.75q-2,2.19-7.75,5.31a3.36,3.36,0,0,0-.87.32,48.72,48.72,0,0,0,5.62,4.06,45.59,45.59,0,0,1,6.25,4.69C157.6,292.29,158.51,294.23,158.43,296.19ZM152.37,267a8.09,8.09,0,0,0-4.3-7.31,16.42,16.42,0,0,0-8.6-2.13,15.39,15.39,0,0,0-3,.25l-.81,1.25a8.14,8.14,0,0,0-1,3.82c-.09,2.29-.17,3.64-.25,4.06a72.45,72.45,0,0,0-1,11.31,24.43,24.43,0,0,0,5.73,1.75,9,9,0,0,0,2.49-.5,15.87,15.87,0,0,0,7.48-4.56A11.23,11.23,0,0,0,152.37,267Z"/><path class="cls-4" d="M184.43,257.5c0,1-.36,1.56-1.07,1.56a7.14,7.14,0,0,0-1.38-.68c-.63-.34-2.24-.5-4.83-.5h-2.83c-1,0-1.63.15-1.88.47a4.94,4.94,0,0,0-.6,2.12c-.14,1.11-.38,2.74-.72,4.91a166.23,166.23,0,0,0-1.19,20.43q0,8.07,1.75,10.88,0,.87-.63.87-3.3,0-4.18-3.75a31.45,31.45,0,0,1-.38-6.25q0-7,.32-10.56c0-1.12.27-3.75.68-7.87.34-3.29.5-5.92.5-7.88,0-2.37,0-3,.07-1.75-.05-.62-.32-.94-.82-.94a19.16,19.16,0,0,0-3.34.44,19.16,19.16,0,0,1-3.34.44,3.1,3.1,0,0,1-3.25-2c.41-.71,3.52-1.42,9.31-2.13q7.24-.81,10.56-.81Q184.43,254.5,184.43,257.5Z"/><path class="cls-4" d="M212.06,256.81a2.16,2.16,0,0,1-1.57.69,7.77,7.77,0,0,1-1.12-.12,7,7,0,0,0-1.19-.13,31.37,31.37,0,0,0-7,1.07,59.09,59.09,0,0,1-7,1.5l-1.31,11.79a20.37,20.37,0,0,0-.13,2.14c0,.92.32,1.38.94,1.38a2.38,2.38,0,0,0,.56-.07,41,41,0,0,1,8.69-1.5c2.58,0,3.46,0,2.63-.12a2.63,2.63,0,0,1,2,1.25l.18,1.56a.64.64,0,0,1-.62.44,7.44,7.44,0,0,0-1.16.12,6.3,6.3,0,0,1-1.09.13A42.14,42.14,0,0,0,192.74,279a58.47,58.47,0,0,0-.43,9.19c0,3.92.14,6.1.43,6.56a6.57,6.57,0,0,0,.6.75,1,1,0,0,1,.34.63c0,.29-.23.61-.69,1a2.08,2.08,0,0,1-1.06.53s-.67-.34-1.87-1a25.81,25.81,0,0,1-1.32-9.07q0-4.43.72-13.15t.72-13.16a.94.94,0,0,0-.87-1.06,5.45,5.45,0,0,1-1.63-.44c-.62-.41-.94-.79-.94-1.12a1.85,1.85,0,0,1,.57-1.25,5.37,5.37,0,0,1,1.56-.19,2,2,0,0,0,1.44-.5,4,4,0,0,0,.12-.94c0-.62.42-1.19,1.25-1.69a3.69,3.69,0,0,1,1.69-.56q.62,0,.69.81v1.32a1,1,0,0,0,.43.62l5.94-1.25a32.59,32.59,0,0,1,6-.69A6.93,6.93,0,0,1,212.06,256.81Z"/><path class="cls-4" d="M243.68,275.35a28.88,28.88,0,0,1-3.94,15.29q-4.62,7.61-12.81,7.61a15.33,15.33,0,0,1-4.81-.93q-10.44-3.31-10.44-18.73a32.57,32.57,0,0,1,4-16.16q4.75-8.61,13.06-8.62,7.26,0,11.44,7.43A28.15,28.15,0,0,1,243.68,275.35Zm-3.5-.56q0-13.86-9.23-17a5,5,0,0,0-1.74-.37q-4,0-7.86,3.68-6.54,6.24-6.54,19.28a22.14,22.14,0,0,0,.49,3.75c.71,3.57,1.87,6.24,3.5,8q2.87,3,8,3,7.11,0,10.6-7.05A29.23,29.23,0,0,0,240.18,274.79Z"/><path class="cls-4" d="M270.43,295.13a36.54,36.54,0,0,1-13,2.18q-5.37,0-7.37-4.18-1.44-2.94-1.44-9,0-3.88.59-11.57t.6-11.5c0-.54-.05-1.33-.13-2.37s-.12-1.83-.12-2.38,0-.85.06-1.31a2.32,2.32,0,0,1,1.87-.81q2.19,0,2.19,5.12,0,4.44-.81,13.32t-.81,13.31q0,8.43,5.62,8.44a19.22,19.22,0,0,0,5.28-1.07,19.51,19.51,0,0,1,5.28-1.06,1.82,1.82,0,0,1,1.6.91A3.56,3.56,0,0,1,270.43,295.13Z"/><path class="cls-4" d="M279.37,256.44a9.37,9.37,0,0,1-.57,1.06,15.17,15.17,0,0,0-.5,3.31,215.59,215.59,0,0,0-1.43,23.69q0,8.94,1.93,11.69a3.74,3.74,0,0,1-1.87.81c-1.79,0-2.88-1.46-3.25-4.37a50.71,50.71,0,0,1-.5-5.5l.44-29.63a2.66,2.66,0,0,1,1.18-1.87,3.46,3.46,0,0,1,2.07-1,3.16,3.16,0,0,1,1.53.65C279,255.72,279.37,256.11,279.37,256.44Z"/><path class="cls-4" d="M310.24,293.88c-.21.46-.46.68-.75.68a4.18,4.18,0,0,1-.72-.09,4.07,4.07,0,0,0-.72-.09,27.31,27.31,0,0,0-7.78,1.68,27,27,0,0,1-7.78,1.69q-8.81,0-8.81-14.79,0-11.73.62-20l.13-2a6.41,6.41,0,0,0-.16-1.28,6.78,6.78,0,0,1-.15-1.09c0-1,.68-1.56,2.06-1.69a85.34,85.34,0,0,0,9.12-1.93,43.54,43.54,0,0,1,8.88-1.5,4.4,4.4,0,0,1,.87.12,3.08,3.08,0,0,1,1.94.57,1.67,1.67,0,0,1,.94,1.31c0,.83-1.06,1.25-3.19,1.25a51.62,51.62,0,0,0-8.44,1c-4.16.79-6.75,1.6-7.75,2.44q-.49,4.74-1.18,14.87a.81.81,0,0,0,.68.31,20.15,20.15,0,0,0,5.57-1.18,20.17,20.17,0,0,1,5.62-1.19,6.79,6.79,0,0,1,3.13.81l.5,1.88c.08.16-.46.46-1.63.87a3.81,3.81,0,0,0-2.25-.62,28.93,28.93,0,0,0-5.9,1.12,37.48,37.48,0,0,0-5.91,1.88,47.1,47.1,0,0,0-.25,6.37q0,9.44,4.81,9.44a22.05,22.05,0,0,0,6.66-1.53,21.94,21.94,0,0,1,6.65-1.53Q309.06,291.63,310.24,293.88Z"/></svg>
