<svg id="Layer_1" data-name="Layer 1" xmlns="http://www.w3.org/2000/svg" width="201.71mm" height="184.1mm" viewBox="0 0 571.77 521.86"><defs><style>.cls-1{fill:#1d1d1b;}.cls-2,.cls-4{fill:#fce4da;}.cls-2,.cls-3{opacity:0.6;}.cls-5{fill:#d9ebda;}.cls-6{fill:#fef6b5;}</style></defs><title>Artboard 12</title><rect class="cls-1" x="296.58" y="6.95" width="266.15" height="236.63" rx="29.91"/><path class="cls-2" d="M49.36,385.8a6,6,0,0,1,0-1.75,5.4,5.4,0,0,1,0-.9,5.66,5.66,0,0,1-.08-1.23,19.14,19.14,0,0,1,0-2.2c0-.21,0-.42,0-.62a5.8,5.8,0,0,1,0-1.25,5.57,5.57,0,0,1,0-1.08,5.88,5.88,0,0,1,0-2l-.14-2.63s0-.08,0-.12,0-.29,0-.44h0a4.07,4.07,0,0,1-1.07.14,3.7,3.7,0,0,1-.77-.09l-.35,0a4.2,4.2,0,0,1-.72-.06,2.58,2.58,0,0,1-.29,0,5.65,5.65,0,0,1-.59,0,5.07,5.07,0,0,1-.8.07,4.51,4.51,0,0,1-1-.11h-.27a3.88,3.88,0,0,1-.7-.06,4.41,4.41,0,0,1-.52,0l-.34,0-.16,0a5.06,5.06,0,0,1-.69-.06,4.32,4.32,0,0,1-.91.09l-.37,0c-4.42,16.11-1.25,43.75,9.54,73.23,0-1.4-.3-44.38.41-56.12A5.94,5.94,0,0,1,49.36,385.8Z"/><g class="cls-3"><path class="cls-4" d="M184.93,228.47c0,12.94-6.19,23.72-12.15,33.44-9,14.69-20.95,25.41-37.43,25.41-16.18,0-28.41-9-37.46-23.23-6.26-9.86-12.12-22.33-12.12-35.62,0-32.51,22.2-58.86,49.58-58.86S184.93,196,184.93,228.47Z"/><path class="cls-4" d="M207.87,329.77l29.26,29.68,39.95-48.13h21.4l-40.66,80.22s-22,24.14-36.23,10.5S168.1,359.2,168.1,359.2l-6.69-26.14,9.36-29.77,26.75,5.81Z"/><path class="cls-5" d="M115.52,303.29c-3.34-5.8-43.17,2.91-45.95,5.09S49.08,320,49.08,351.94V477.56L80.21,532h81.16l41.69-11.61-4.35-109.64,15.53-79.87s-10.62-28.32-20.63-28.32S115.52,303.29,115.52,303.29Z"/><path class="cls-4" d="M282.54,328.75l6.45,3.06a6.62,6.62,0,0,0,1.71.57c3.05.59,12.88,2.25,16.23-.19,4-2.89,0,1,2.4-5.3s-1.2-7.24-.4-10.62,2.39-4.82,1.19-7.24,0-5.3,2-10.61c.93-2.49.12-5.08-1-7.13a7.5,7.5,0,0,0-6.53-4h-7.21s-5.19,1,.39-18.82c3.69-13.07-.1-13.4-3.1-12.13a7.77,7.77,0,0,0-3.94,4c-.73,1.61-1.76,4-2.93,7.18-1.07,2.86-2,7.7-6.37,17.36-3,6.6-3,5.87-4.39,12.06s0,8.91.3,9.79a8.19,8.19,0,0,1,.3,3l-.47,6.17a14.5,14.5,0,0,0,.17,3.48l.43,2.46A9.16,9.16,0,0,0,282.54,328.75Z"/><path class="cls-4" d="M115.72,271.35s-1.92,35.58-7.69,44.29,22.42,8.71,22.42,8.71l25.61-3.63s-5.12-12.34-5.76-25.41a148.93,148.93,0,0,0-3.2-24Z"/><path class="cls-5" d="M95.72,305A1.77,1.77,0,0,0,94,302.77c-6.66.3-27.19,2.26-37.69,15.09-10.82,13.22-17.4,43.22-19.07,51.59a1.78,1.78,0,0,0,1.64,2.2h4l38.27.61a1.71,1.71,0,0,0,1.66-1.43Z"/><path class="cls-5" d="M160.58,305.84a1.86,1.86,0,0,1,1-2.66c6.41-2,26.47-7.13,40.15,1.46,14.09,8.86,29,35.1,33,42.48a1.86,1.86,0,0,1-.92,2.64l-3.78,1.36-36.16,13.63a1.61,1.61,0,0,1-2-.8Z"/><path class="cls-6" d="M107.65,164.46c9.5-4.69,6.91-7.5,18.14-9.38,3.4-.57,19.21,5.59,22.66,6.41.44.11,25.08,7.88,25.08,7.88a10,10,0,0,1,7.23,5.19c1.75,3.18,6.1,6.31,7.21,10.54,1.73,6.56-3.45,8.44-4.32,8.44s-22.35,2.06-28.57,2.65a9,9,0,0,1-3.26-.27c-5.42-1.47-22.72-6.13-23.44-6.13s-14.29-1.42-22.17-2.24a10,10,0,0,1-7.93-5.92h0c-2.46-5.34-.47-11.83,4.44-14.49Z"/><path class="cls-6" d="M100.06,171.46c-2-.21-17.31,6-17.31,6s-7.82,19.86-8.92,24.67-7,40.64-9.11,49.29-5.07,19.17-10,21.6.4,25.09.4,25.09L70,306.58s10.08-6.39,11.49-7.23,11.1-10.67,11.1-10.67l17-106S102.06,171.67,100.06,171.46Z"/></g></svg>
