<svg id="Layer_1" data-name="Layer 1" xmlns="http://www.w3.org/2000/svg" width="239.36mm" height="226.01mm" viewBox="0 0 678.51 640.65"><defs><style>.cls-1,.cls-3{fill:#fce4da;}.cls-1,.cls-2{opacity:0.6;}.cls-4{fill:#d9ebda;}.cls-5{fill:#fef6b5;}.cls-6{fill:#c9114b;opacity:0.02;}</style></defs><title>Artboard 27</title><path class="cls-1" d="M82,432.33C62.22,386,60.93,342.2,79.16,334.4"/><g class="cls-2"><path class="cls-3" d="M236.8,196c0,13.8-7.17,25.3-14.07,35.66-10.44,15.66-24.25,27.09-43.33,27.09-18.74,0-32.9-9.59-43.37-24.77-7.26-10.51-14-23.8-14-38,0-34.65,25.69-62.75,57.4-62.75S236.8,161.37,236.8,196Z"/><path class="cls-3" d="M263.36,304l33.87,31.65,46.26-51.32h24.78l-47.09,85.53s-25.42,25.74-41.94,11.2-61.93-45.68-61.93-45.68l-7.74-27.87,10.84-31.74,31,6.2Z"/><path class="cls-4" d="M156.43,275.8c-3.86-6.19-50,3.1-53.19,5.42s-23.72,12.39-23.72,46.45V461.6l36,58.06h94l48.27-12.39-5-116.89,18-85.16S258.43,275,246.85,275,156.43,275.8,156.43,275.8Z"/><path class="cls-3" d="M349.81,302.94l7.47,3.27a8.54,8.54,0,0,0,2,.6c3.53.63,14.91,2.4,18.79-.19,4.62-3.09,0,1,2.77-5.66s-1.38-7.72-.46-11.32,2.77-5.15,1.39-7.72,0-5.66,2.3-11.32c1.09-2.65.14-5.41-1.17-7.6a8.8,8.8,0,0,0-7.56-4.23H367s-6,1,.47-20.06c4.27-13.94-.13-14.29-3.6-12.93a8.67,8.67,0,0,0-4.56,4.26c-.84,1.71-2,4.3-3.4,7.65-1.23,3.05-2.3,8.22-7.37,18.51-3.47,7-3.47,6.26-5.08,12.86s0,9.5.35,10.43a8.12,8.12,0,0,1,.34,3.25l-.54,6.58a13.93,13.93,0,0,0,.2,3.7l.5,2.63A9.83,9.83,0,0,0,349.81,302.94Z"/><path class="cls-3" d="M156.66,241.74s-2.22,37.93-8.89,47.22,25.95,9.29,25.95,9.29l29.66-3.87s-5.93-13.16-6.68-27.09a147.25,147.25,0,0,0-3.7-25.55Z"/><path class="cls-4" d="M133.51,277.58a1.93,1.93,0,0,0-2-2.33c-7.72.31-31.49,2.41-43.64,16.08-12.53,14.1-20.15,46.09-22.08,55a1.92,1.92,0,0,0,1.89,2.34h4.61l44.31.64a1.91,1.91,0,0,0,1.92-1.53Z"/><path class="cls-4" d="M208.61,278.52a1.93,1.93,0,0,1,1.14-2.84c7.42-2.12,30.65-7.6,46.48,1.56,16.32,9.45,33.61,37.43,38.25,45.29a1.94,1.94,0,0,1-1.06,2.82L289,326.79l-41.86,14.54a1.93,1.93,0,0,1-2.3-.86Z"/><path class="cls-5" d="M147.32,127.78c11-5,8-8,21-10,3.94-.6,22.24,6,26.25,6.84.5.11,29,8.4,29,8.4a11.53,11.53,0,0,1,8.37,5.53c2,3.39,7.06,6.73,8.35,11.23,2,7-4,9-5,9s-25.88,2.2-33.08,2.84a11.46,11.46,0,0,1-3.78-.3c-6.28-1.56-26.3-6.54-27.14-6.54s-16.54-1.51-25.66-2.38a11.5,11.5,0,0,1-9.19-6.32h0a11.52,11.52,0,0,1,5.15-15.45Z"/><path class="cls-5" d="M138.54,135.24c-2.31-.22-20,6.46-20,6.46s-9.06,21.17-10.33,26.3-8.1,43.33-10.55,52.55-5.87,20.43-11.56,23,.45,26.75.45,26.75l17.22,9s11.67-6.82,13.31-7.71,12.85-11.38,12.85-11.38l19.74-113.07S140.85,135.47,138.54,135.24Z"/></g><rect class="cls-6" x="3.84" y="0.3" width="676.68" height="639.5"/></svg>
