<svg id="Layer_1" data-name="Layer 1" xmlns="http://www.w3.org/2000/svg" width="239.36mm" height="226.01mm" viewBox="0 0 678.51 640.65"><defs><style>.cls-1,.cls-3{fill:#fce4da;}.cls-1,.cls-2{opacity:0.6;}.cls-4{fill:#d9ebda;}.cls-5{fill:#fef6b5;}.cls-6{fill:#c9114b;opacity:0.02;}.cls-7{fill:#1d1d1b;}</style></defs><title>Artboard 27</title><path class="cls-1" d="M82,432.33C62.22,386,60.93,342.2,79.16,334.4"/><g class="cls-2"><path class="cls-3" d="M236.8,196c0,13.8-7.17,25.3-14.07,35.66-10.44,15.66-24.25,27.09-43.33,27.09-18.74,0-32.9-9.59-43.37-24.77-7.26-10.51-14-23.8-14-38,0-34.65,25.69-62.75,57.4-62.75S236.8,161.37,236.8,196Z"/><path class="cls-3" d="M263.36,304l33.87,31.65,46.26-51.32h24.78l-47.09,85.53s-25.42,25.74-41.94,11.2-61.93-45.68-61.93-45.68l-7.74-27.87,10.84-31.74,31,6.2Z"/><path class="cls-4" d="M156.43,275.8c-3.86-6.19-50,3.1-53.19,5.42s-23.72,12.39-23.72,46.45V461.6l36,58.06h94l48.27-12.39-5-116.89,18-85.16S258.43,275,246.85,275,156.43,275.8,156.43,275.8Z"/><path class="cls-3" d="M349.81,302.94l7.47,3.27a8.54,8.54,0,0,0,2,.6c3.53.63,14.91,2.4,18.79-.19,4.62-3.09,0,1,2.77-5.66s-1.38-7.72-.46-11.32,2.77-5.15,1.39-7.72,0-5.66,2.3-11.32c1.09-2.65.14-5.41-1.17-7.6a8.8,8.8,0,0,0-7.56-4.23H367s-6,1,.47-20.06c4.27-13.94-.13-14.29-3.6-12.93a8.67,8.67,0,0,0-4.56,4.26c-.84,1.71-2,4.3-3.4,7.65-1.23,3.05-2.3,8.22-7.37,18.51-3.47,7-3.47,6.26-5.08,12.86s0,9.5.35,10.43a8.12,8.12,0,0,1,.34,3.25l-.54,6.58a13.93,13.93,0,0,0,.2,3.7l.5,2.63A9.83,9.83,0,0,0,349.81,302.94Z"/><path class="cls-3" d="M156.66,241.74s-2.22,37.93-8.89,47.22,25.95,9.29,25.95,9.29l29.66-3.87s-5.93-13.16-6.68-27.09a147.25,147.25,0,0,0-3.7-25.55Z"/><path class="cls-4" d="M133.51,277.58a1.93,1.93,0,0,0-2-2.33c-7.72.31-31.49,2.41-43.64,16.08-12.53,14.1-20.15,46.09-22.08,55a1.92,1.92,0,0,0,1.89,2.34h4.61l44.31.64a1.91,1.91,0,0,0,1.92-1.53Z"/><path class="cls-4" d="M208.61,278.52a1.93,1.93,0,0,1,1.14-2.84c7.42-2.12,30.65-7.6,46.48,1.56,16.32,9.45,33.61,37.43,38.25,45.29a1.94,1.94,0,0,1-1.06,2.82L289,326.79l-41.86,14.54a1.93,1.93,0,0,1-2.3-.86Z"/><path class="cls-5" d="M147.32,127.78c11-5,8-8,21-10,3.94-.6,22.24,6,26.25,6.84.5.11,29,8.4,29,8.4a11.53,11.53,0,0,1,8.37,5.53c2,3.39,7.06,6.73,8.35,11.23,2,7-4,9-5,9s-25.88,2.2-33.08,2.84a11.46,11.46,0,0,1-3.78-.3c-6.28-1.56-26.3-6.54-27.14-6.54s-16.54-1.51-25.66-2.38a11.5,11.5,0,0,1-9.19-6.32h0a11.52,11.52,0,0,1,5.15-15.45Z"/><path class="cls-5" d="M138.54,135.24c-2.31-.22-20,6.46-20,6.46s-9.06,21.17-10.33,26.3-8.1,43.33-10.55,52.55-5.87,20.43-11.56,23,.45,26.75.45,26.75l17.22,9s11.67-6.82,13.31-7.71,12.85-11.38,12.85-11.38l19.74-113.07S140.85,135.47,138.54,135.24Z"/></g><rect class="cls-6" x="3.84" y="0.3" width="676.68" height="639.5"/><path class="cls-7" d="M457.75,220.49c0,.62-.21.93-.64.93a4.65,4.65,0,0,0-.82-.41,8.18,8.18,0,0,0-2.9-.3h-1.7c-.6,0-1,.1-1.13.28a3,3,0,0,0-.36,1.28c-.09.66-.23,1.64-.43,2.94a98.65,98.65,0,0,0-.72,12.26c0,3.23.35,5.4,1.05,6.53,0,.35-.12.52-.38.52a2.47,2.47,0,0,1-2.5-2.25,18.78,18.78,0,0,1-.23-3.75q0-4.2.19-6.33c0-.68.16-2.25.41-4.73.2-2,.3-3.55.3-4.72,0-1.43,0-1.78,0-1.05,0-.38-.19-.57-.49-.57a11.13,11.13,0,0,0-2,.27,11.67,11.67,0,0,1-2,.26,1.86,1.86,0,0,1-1.95-1.2c.25-.43,2.11-.85,5.59-1.28q4.35-.48,6.33-.48Q457.75,218.69,457.75,220.49Z"/><path class="cls-7" d="M478.6,243.7v.19a.7.7,0,0,1-.64.37c-.35,0-.57-.06-.67-.19q-.3-1.53-5.08-4.89c-3.18-2.24-5.34-3.36-6.46-3.36H463.6v2.33a20.58,20.58,0,0,0,.27,2.25,8.17,8.17,0,0,0,.39,2.06,5.14,5.14,0,0,0,.66.94c0,.57-.33.86-1,.86a1.9,1.9,0,0,1-1.65-.79q-.56-.78-.56-7.35c0-.35-.44-.66-1.31-.93s-1.32-.6-1.32-1q0-.83,2.4-1.5a23.14,23.14,0,0,0,.34-3.6c.1-1.87.18-3.09.23-3.64q0-.41.33-2.25a10.39,10.39,0,0,0,.23-2.28,2.41,2.41,0,0,0-1-.12q-.81,0-.81-.63a.91.91,0,0,1,.75-1l1.09-.3a2.31,2.31,0,0,1,.48-.82,1.87,1.87,0,0,1,.6-.12,1.25,1.25,0,0,1,.85.42,1.2,1.2,0,0,0,.77.41,3.16,3.16,0,0,0,.52-.06,3,3,0,0,1,.53-.05,13.32,13.32,0,0,1,7,1.72,6.49,6.49,0,0,1,3.49,5.93,7.32,7.32,0,0,1-1.92,5.25,19.21,19.21,0,0,1-4.65,3.18,2.09,2.09,0,0,0-.52.19,28.4,28.4,0,0,0,3.37,2.44,27.87,27.87,0,0,1,3.75,2.81A4.69,4.69,0,0,1,478.6,243.7ZM475,226.19a4.84,4.84,0,0,0-2.58-4.39,9.87,9.87,0,0,0-5.16-1.28,8.86,8.86,0,0,0-1.79.15l-.49.75a4.9,4.9,0,0,0-.6,2.29c-.05,1.38-.1,2.19-.15,2.44a43.21,43.21,0,0,0-.6,6.79A14.88,14.88,0,0,0,467,234a5.56,5.56,0,0,0,1.5-.3A9.56,9.56,0,0,0,473,231,6.73,6.73,0,0,0,475,226.19Z"/><path class="cls-7" d="M483.85,219.85a6.4,6.4,0,0,1-.33.64,8.61,8.61,0,0,0-.3,2,127.21,127.21,0,0,0-.87,14.22q0,5.35,1.17,7a2.32,2.32,0,0,1-1.13.49c-1.07,0-1.72-.88-1.95-2.63a29.79,29.79,0,0,1-.3-3.3l.26-17.77a1.61,1.61,0,0,1,.72-1.13,2,2,0,0,1,1.23-.6,1.85,1.85,0,0,1,.92.39C483.66,219.42,483.85,219.65,483.85,219.85Z"/><path class="cls-7" d="M503.17,218.65a.46.46,0,0,1-.34.49l-.71.3c-.35.2-.67,1.33-.94,3.38a29.27,29.27,0,0,0-.34,3.9l-.11,11.38a11.29,11.29,0,0,1-.64,3.27c-.52,1.5-1.19,2.25-2,2.25-1.22,0-2.36-1.13-3.41-3.41a44.83,44.83,0,0,1-1.78-5.12q-1.14-3.76-3.39-11.3-.42.08-.45.75-.07,1-.6,5.25a42.4,42.4,0,0,0-.42,5.25c0,4,.25,6.35.75,7a3.25,3.25,0,0,1,.42.68c0,.27-.19.53-.56.78a1.76,1.76,0,0,1-1,.38c-1,0-1.52-1.64-1.52-4.91q0-.67-.06-1.92c0-.82-.05-1.46-.05-1.91a38.13,38.13,0,0,1,.48-4.93,36.81,36.81,0,0,0,.49-5v-4.84a.81.81,0,0,0-.06-.24,1.13,1.13,0,0,1-.05-.24c0-.65.64-1,1.91-1a2.36,2.36,0,0,1,2.18,1,6.16,6.16,0,0,1,.3,1.65c.07.6.15,1.21.22,1.83a79.93,79.93,0,0,0,2.7,9.87q2.6,7.95,3.75,7.95c.68,0,1-1.34,1-4l-.12-11.27a15.74,15.74,0,0,1,.72-4.43c.62-2.13,1.43-3.2,2.43-3.2A2.21,2.21,0,0,1,503.17,218.65Z"/><path class="cls-7" d="M520.34,242.31c-.12.28-.27.41-.45.41a3.14,3.14,0,0,1-.43-.05,2.26,2.26,0,0,0-.43-.06,16.44,16.44,0,0,0-4.67,1,16.19,16.19,0,0,1-4.67,1q-5.28,0-5.29-8.88,0-7,.38-12l.07-1.2a4.33,4.33,0,0,0-.09-.77,4.09,4.09,0,0,1-.09-.65c0-.6.41-.94,1.23-1a53,53,0,0,0,5.48-1.16,26,26,0,0,1,5.32-.9,2.56,2.56,0,0,1,.53.07,1.87,1.87,0,0,1,1.16.34c.38.25.56.51.56.79,0,.5-.63.75-1.91.75a31.11,31.11,0,0,0-5.06.6q-3.75.71-4.65,1.46-.3,2.85-.71,8.93a.5.5,0,0,0,.41.18,11.91,11.91,0,0,0,3.34-.71,12.23,12.23,0,0,1,3.37-.71,4,4,0,0,1,1.88.49l.3,1.12c.05.1-.28.28-1,.53a2.27,2.27,0,0,0-1.35-.38,17.56,17.56,0,0,0-3.54.68,23,23,0,0,0-3.55,1.12,28.79,28.79,0,0,0-.15,3.83c0,3.77,1,5.66,2.89,5.66a13.18,13.18,0,0,0,4-.92,13.29,13.29,0,0,1,4-.92C518.83,241,519.87,241.41,520.34,242.31Z"/><path class="cls-7" d="M546.22,228.17a23.36,23.36,0,0,1-2.52,10.69q-3.11,6.07-8.25,6.08a5.53,5.53,0,0,1-3.52-1.32c-.43.55-.7.83-.83.83a1.55,1.55,0,0,1-.82-.26,19.6,19.6,0,0,1-.53-5.63q0-3.15.12-9.36t.11-9.39v-.6c0-.55.3-.82.9-.82a1.8,1.8,0,0,1,1,.35,1,1,0,0,1,.53.77,3.23,3.23,0,0,1-.26,1.11,3,3,0,0,0-.27,1.07v1.46a5.54,5.54,0,0,0,1.31-1.84,7.91,7.91,0,0,1,1.76-2.32,5.23,5.23,0,0,1,3.55-1.2,6.62,6.62,0,0,1,6.06,3.33A13.33,13.33,0,0,1,546.22,228.17ZM544,228a14.32,14.32,0,0,0-1-5.67c-.88-2.1-2.3-3.15-4.28-3.15-1.4,0-2.79.87-4.16,2.59a13.09,13.09,0,0,0-2.36,4.54,17.42,17.42,0,0,0-.6,4.65v7.76a5,5,0,0,0,.94,3,3.27,3.27,0,0,0,2.77,1.42q3,0,5.36-3.15a14.44,14.44,0,0,0,2.7-5.92A30.73,30.73,0,0,0,544,228Z"/><path class="cls-7" d="M563.09,230.05a35.28,35.28,0,0,1-.71,6.67c-.58,3-1.34,5.05-2.29,6.08a5.7,5.7,0,0,1-4.27,1.95,6.72,6.72,0,0,1-4.5-1.35,7.51,7.51,0,0,1-2.44-4.8,42.55,42.55,0,0,1-.23-5.63c0-1.22.08-3.05.23-5.49s.22-4.26.22-5.46a3,3,0,0,0-.22-1,3.14,3.14,0,0,1-.23-.92c0-.25.21-.51.62-.79a2,2,0,0,1,1-.41,5.9,5.9,0,0,0,1.28,0c.32.08.46.36.41.86-.18.71-.36,1.62-.56,2.75-.48,4.63-.71,7.48-.71,8.56V236a10.09,10.09,0,0,0,1,4.55,3.85,3.85,0,0,0,3.55,2.48q3.91,0,5.3-7.55a64.43,64.43,0,0,0,.68-10.71l.07-1.57a12.2,12.2,0,0,0,0-1.66,4.23,4.23,0,0,0-.37-1.48,4,4,0,0,1-.3-.69,1.67,1.67,0,0,1,.28-.85.81.81,0,0,1,.66-.47,2,2,0,0,1,1,.36c.39.24.58.48.58.73Z"/><path class="cls-7" d="M580.15,230.05a35.28,35.28,0,0,1-.71,6.67c-.58,3-1.34,5.05-2.29,6.08a5.7,5.7,0,0,1-4.27,1.95,6.72,6.72,0,0,1-4.5-1.35,7.51,7.51,0,0,1-2.44-4.8,42.55,42.55,0,0,1-.23-5.63c0-1.22.08-3.05.23-5.49s.22-4.26.22-5.46a3,3,0,0,0-.22-1,3.14,3.14,0,0,1-.23-.92c0-.25.21-.51.62-.79a2.08,2.08,0,0,1,1-.41,5.9,5.9,0,0,0,1.28,0c.32.08.46.36.41.86-.17.71-.36,1.62-.56,2.75-.48,4.63-.71,7.48-.71,8.56V236a10.09,10.09,0,0,0,1,4.55A3.85,3.85,0,0,0,572.3,243q3.91,0,5.3-7.55a64.43,64.43,0,0,0,.68-10.71l.07-1.57a10.77,10.77,0,0,0,0-1.66,4.23,4.23,0,0,0-.37-1.48,4,4,0,0,1-.3-.69,1.67,1.67,0,0,1,.28-.85.81.81,0,0,1,.66-.47,2,2,0,0,1,1,.36c.39.24.58.48.58.73Z"/><path class="cls-7" d="M597.55,240.7c0,1.4-.87,2.47-2.62,3.22a11.3,11.3,0,0,1-4.5.9,15,15,0,0,1-4.84-.9q-3.37-1.15-3.38-2.88c0-.63.3-.94.9-.94a2.65,2.65,0,0,1,1.65.82c.88.83,1.35,1.27,1.43,1.32a8.72,8.72,0,0,0,4.61.93q4.28,0,4.28-2.25c0-.7-.62-1.56-1.84-2.58l-2.81-2a40.85,40.85,0,0,1-5.07-4,8.31,8.31,0,0,1-2.36-5.85,9.73,9.73,0,0,1,1.76-5.63,5.79,5.79,0,0,1,4.92-2.85,5.45,5.45,0,0,1,4.31,2.14,9.53,9.53,0,0,1,2.06,4.54q0,.9.3,2.73l.3,1.35c0,2-.49,3-1.46,3a1.08,1.08,0,0,1-.77-.43,1.22,1.22,0,0,1-.39-.8,8.94,8.94,0,0,1,.2-1.54,8.33,8.33,0,0,0,.21-1.54,11.83,11.83,0,0,0-.82-4.57q-1.08-2.7-3.27-2.7a4.44,4.44,0,0,0-3.67,1.93,6.81,6.81,0,0,0-1.47,4.22c0,2,1.08,4,3.22,5.85l5.94,4.31Q597.55,238.83,597.55,240.7Z"/><path class="cls-7" d="M343.89,175.1q-2.56,15.89-13.44,15.25a16.36,16.36,0,0,1-9.93-3.87l-.44.31v2.56a15.23,15.23,0,0,0,.62,5.44,13.52,13.52,0,0,0,.69,1.28,4.69,4.69,0,0,1,.63,1.34,2.12,2.12,0,0,1-.57,1.41,1.73,1.73,0,0,1-1.37.66,2.82,2.82,0,0,1-2.63-1.25,7.79,7.79,0,0,1-.62-3c-.13-2.13-.19-4.27-.19-6.44,0-1.25.09-3.13.28-5.63s.27-4.4.25-5.71.07-3.25.28-5.82.32-4.47.32-5.72V160a7.42,7.42,0,0,0-.22-1.38,6.48,6.48,0,0,1-.22-1.37c0-.79.54-1.19,1.62-1.19a2.14,2.14,0,0,1,1.78.94,3.21,3.21,0,0,1,.72,2,13.25,13.25,0,0,1-.28,2.31,13.25,13.25,0,0,0-.28,2.31v1.63c1-1.67,1.91-3.34,2.87-5a10.44,10.44,0,0,1,8.91-4.69,10,10,0,0,1,9,4.94,19.44,19.44,0,0,1,2.49,10.31A29.25,29.25,0,0,1,343.89,175.1Zm-2.81-3.53A20.52,20.52,0,0,0,339.4,163q-2.19-4.83-6.42-4.83-5.49,0-9.29,7.32a26.59,26.59,0,0,0-3.24,12.31v3.31a2.37,2.37,0,0,1,.94-.31q.44,0,.78.63a2.72,2.72,0,0,0,.6.82c0,.13-.11.17-.19.13s-.13,0-.13.12a2.93,2.93,0,0,0,.5,1.14,8.27,8.27,0,0,0,7.48,3.78q4.72,0,7.1-3.13c1.2-1.54,2.16-4,2.86-7.39A31,31,0,0,0,341.08,171.57Z"/><path class="cls-7" d="M379.64,177.57a28.83,28.83,0,0,1-3.94,15.29q-4.62,7.62-12.81,7.62a15.37,15.37,0,0,1-4.81-.94q-10.44-3.31-10.44-18.72a32.64,32.64,0,0,1,4-16.17Q356.4,156,364.7,156q7.26,0,11.44,7.43A28.12,28.12,0,0,1,379.64,177.57Zm-3.5-.56q0-13.84-9.23-17a5,5,0,0,0-1.74-.38q-4,0-7.86,3.69-6.54,6.24-6.54,19.28a22.05,22.05,0,0,0,.49,3.74c.71,3.58,1.87,6.24,3.5,8q2.87,3,8,3,7.11,0,10.6-7A29.23,29.23,0,0,0,376.14,177Z"/><path class="cls-7" d="M414,198.41v.32a1.18,1.18,0,0,1-1.06.62c-.59,0-1-.1-1.13-.31q-.5-2.56-8.46-8.16t-10.78-5.59H389v3.87a33.4,33.4,0,0,0,.45,3.75,13.24,13.24,0,0,0,.65,3.44,8.31,8.31,0,0,0,1.09,1.56q0,1.44-1.62,1.44a3.17,3.17,0,0,1-2.75-1.31q-.94-1.32-.94-12.25,0-.87-2.19-1.56c-1.46-.46-2.19-1-2.19-1.63,0-.91,1.34-1.75,4-2.5a40.68,40.68,0,0,0,.57-6c.16-3.12.29-5.14.37-6.06,0-.46.23-1.71.56-3.75a17.62,17.62,0,0,0,.38-3.81,4.12,4.12,0,0,0-1.66-.19c-.89,0-1.34-.35-1.34-1.06a1.51,1.51,0,0,1,1.25-1.63l1.81-.5a4.32,4.32,0,0,1,.81-1.37,3.11,3.11,0,0,1,1-.19,2.09,2.09,0,0,1,1.41.69,2,2,0,0,0,1.28.68,6,6,0,0,0,.88-.09,5.79,5.79,0,0,1,.87-.09,22.26,22.26,0,0,1,11.69,2.87,10.79,10.79,0,0,1,5.81,9.88,12.21,12.21,0,0,1-3.19,8.75q-2,2.19-7.75,5.31a3.29,3.29,0,0,0-.87.31,48.41,48.41,0,0,0,5.62,4.06,45.59,45.59,0,0,1,6.25,4.69Q414.08,195.48,414,198.41Zm-6.06-29.18a8.08,8.08,0,0,0-4.3-7.32,16.48,16.48,0,0,0-8.59-2.12,14.57,14.57,0,0,0-3,.25l-.81,1.25a8,8,0,0,0-1,3.81c-.08,2.29-.17,3.65-.25,4.06a72.61,72.61,0,0,0-1,11.32,25.27,25.27,0,0,0,5.73,1.75,9.32,9.32,0,0,0,2.5-.5,15.9,15.9,0,0,0,7.47-4.57A11.21,11.21,0,0,0,407.89,169.23Z"/><path class="cls-7" d="M440,159.73c0,1-.35,1.56-1.06,1.56a7.52,7.52,0,0,0-1.38-.69c-.63-.33-2.24-.5-4.84-.5h-2.82c-1,0-1.63.16-1.89.47a4.84,4.84,0,0,0-.59,2.13c-.15,1.1-.39,2.74-.72,4.9a164.49,164.49,0,0,0-1.2,20.44q0,8.06,1.75,10.87c0,.59-.21.88-.63.88q-3.29,0-4.17-3.75a30.73,30.73,0,0,1-.38-6.25q0-7,.31-10.56c0-1.13.27-3.75.69-7.88q.5-4.93.5-7.87c0-2.38,0-3,.06-1.75,0-.63-.31-.94-.81-.94a19.24,19.24,0,0,0-3.35.44,18.92,18.92,0,0,1-3.34.43,3.09,3.09,0,0,1-3.25-2q.63-1,9.31-2.12c4.83-.54,8.36-.81,10.56-.81C437.54,156.73,440,157.73,440,159.73Z"/><path class="cls-7" d="M467.58,159a2.15,2.15,0,0,1-1.56.69,6.89,6.89,0,0,1-1.13-.13,8,8,0,0,0-1.19-.12,31.25,31.25,0,0,0-7,1.06,62.1,62.1,0,0,1-7,1.51l-1.31,11.79q-.12,1.26-.12,2.13,0,1.38.93,1.38a3.07,3.07,0,0,0,.57-.06,40.89,40.89,0,0,1,8.68-1.5c2.59,0,3.46,0,2.63-.13a2.66,2.66,0,0,1,2,1.25l.19,1.57a.65.65,0,0,1-.63.43,7.67,7.67,0,0,0-1.16.13,7.07,7.07,0,0,1-1.09.12,41.83,41.83,0,0,0-12.12,2.07,56.52,56.52,0,0,0-.44,9.18c0,3.92.14,6.11.44,6.57a5.52,5.52,0,0,0,.59.75,1,1,0,0,1,.34.62c0,.29-.23.62-.68,1a2.1,2.1,0,0,1-1.07.53s-.66-.33-1.87-1a25.77,25.77,0,0,1-1.31-9.06q0-4.44.72-13.16t.71-13.15a1,1,0,0,0-.87-1.07,5.58,5.58,0,0,1-1.63-.43c-.62-.42-.93-.79-.93-1.13a1.88,1.88,0,0,1,.56-1.25,6.44,6.44,0,0,1,1.56-.19,2,2,0,0,0,1.44-.5A4,4,0,0,0,446,158c0-.63.42-1.19,1.25-1.69a3.58,3.58,0,0,1,1.69-.56q.63,0,.69.81v1.31a1,1,0,0,0,.44.63c2-.42,3.93-.84,5.93-1.25a32.59,32.59,0,0,1,6-.69A6.9,6.9,0,0,1,467.58,159Z"/><path class="cls-7" d="M499.2,177.57a28.92,28.92,0,0,1-3.93,15.29q-4.63,7.62-12.82,7.62a15.37,15.37,0,0,1-4.81-.94q-10.44-3.31-10.44-18.72a32.74,32.74,0,0,1,4-16.17Q476,156,484.27,156q7.25,0,11.43,7.43A28,28,0,0,1,499.2,177.57Zm-3.5-.56q0-13.84-9.22-17a5.13,5.13,0,0,0-1.75-.38q-4,0-7.86,3.69-6.54,6.24-6.54,19.28a21.31,21.31,0,0,0,.5,3.74c.7,3.58,1.87,6.24,3.49,8q2.87,3,8,3,7.11,0,10.6-7A29.23,29.23,0,0,0,495.7,177Z"/><path class="cls-7" d="M526,197.35a36.27,36.27,0,0,1-13,2.19q-5.37,0-7.37-4.19-1.44-2.94-1.44-9,0-3.87.59-11.56t.6-11.5c0-.54,0-1.33-.13-2.38s-.12-1.83-.12-2.37,0-.85.06-1.31a2.34,2.34,0,0,1,1.88-.82q2.18,0,2.18,5.13,0,4.44-.81,13.31t-.81,13.31q0,8.44,5.62,8.44a19.12,19.12,0,0,0,5.28-1.06,19.24,19.24,0,0,1,5.29-1.06,1.83,1.83,0,0,1,1.59.9A3.5,3.5,0,0,1,526,197.35Z"/><path class="cls-7" d="M534.89,158.66a9.65,9.65,0,0,1-.56,1.07,13.71,13.71,0,0,0-.5,3.31,213.16,213.16,0,0,0-1.44,23.69q0,8.94,1.94,11.68a3.8,3.8,0,0,1-1.88.82q-2.69,0-3.25-4.38a50.3,50.3,0,0,1-.5-5.5l.44-29.62a2.69,2.69,0,0,1,1.19-1.88,3.5,3.5,0,0,1,2.06-1,3.06,3.06,0,0,1,1.53.66C534.57,158,534.89,158.33,534.89,158.66Z"/><path class="cls-7" d="M565.77,196.1q-.32.69-.75.69a4.07,4.07,0,0,1-.72-.09,3.62,3.62,0,0,0-.72-.1,27,27,0,0,0-7.78,1.69A27.4,27.4,0,0,1,548,200q-8.82,0-8.82-14.8,0-11.73.63-20l.12-2a7.09,7.09,0,0,0-.15-1.28,6,6,0,0,1-.16-1.09c0-1,.69-1.56,2.06-1.68a86.28,86.28,0,0,0,9.13-1.94,43.36,43.36,0,0,1,8.87-1.5,4.76,4.76,0,0,1,.88.13,3.16,3.16,0,0,1,1.94.56,1.71,1.71,0,0,1,.93,1.31c0,.84-1.06,1.25-3.18,1.25a52.77,52.77,0,0,0-8.44,1q-6.26,1.2-7.75,2.44-.51,4.76-1.19,14.88a.84.84,0,0,0,.69.31,20.2,20.2,0,0,0,5.56-1.19,20.22,20.22,0,0,1,5.63-1.19,6.73,6.73,0,0,1,3.12.82l.5,1.87c.08.17-.46.46-1.62.88a3.79,3.79,0,0,0-2.25-.63,29.12,29.12,0,0,0-5.91,1.13,37.77,37.77,0,0,0-5.91,1.87,49.14,49.14,0,0,0-.25,6.38q0,9.44,4.82,9.43a22,22,0,0,0,6.65-1.53,22.05,22.05,0,0,1,6.66-1.53Q564.57,193.85,565.77,196.1Z"/></svg>
