<svg id="Layer_1" data-name="Layer 1" xmlns="http://www.w3.org/2000/svg" width="194.17mm" height="178.87mm" viewBox="0 0 550.41 507.05"><defs><style>.cls-1{fill:#1d1d1b;}.cls-2,.cls-4{fill:#fce4da;}.cls-2,.cls-3{opacity:0.6;}.cls-5{fill:#d9ebda;}.cls-6{fill:#fef6b5;}</style></defs><title>Artboard 10</title><rect class="cls-1" x="261.21" width="289.2" height="209.31" rx="29.91"/><rect class="cls-1" x="451.1" y="216.74" width="92.56" height="185.43" rx="12"/><path class="cls-2" d="M38.41,371.12a5.77,5.77,0,0,1,0-1.76,4.51,4.51,0,0,1,0-.9,5.53,5.53,0,0,1-.09-1.22,6.1,6.1,0,0,1,0-1.35,6.18,6.18,0,0,1,0-.86c0-.2,0-.41,0-.62a5.71,5.71,0,0,1,0-1.24,6.49,6.49,0,0,1,0-1.08,6.19,6.19,0,0,1,0-2.06l-.14-2.63s0-.08,0-.12,0-.29,0-.43h0a4.54,4.54,0,0,1-1.07.13,3.87,3.87,0,0,1-.77-.08l-.35,0a4.18,4.18,0,0,1-.72-.07,2.36,2.36,0,0,1-.29,0,3.81,3.81,0,0,1-.59,0,4.09,4.09,0,0,1-.8.08,4.57,4.57,0,0,1-1-.11h-.27a3.88,3.88,0,0,1-.7-.06l-.51,0-.35,0h-.16a4.94,4.94,0,0,1-.68,0,4.49,4.49,0,0,1-.92.09l-.37,0c-4.42,16.1-1.24,43.75,9.54,73.22,0-1.39-.29-44.38.41-56.11A5.82,5.82,0,0,1,38.41,371.12Z"/><g class="cls-3"><path class="cls-4" d="M174,213.78c0,12.94-6.19,23.73-12.15,33.44-9,14.69-20.95,25.42-37.43,25.42-16.18,0-28.41-9-37.45-23.24-6.27-9.85-12.12-22.32-12.12-35.62,0-32.5,22.19-58.85,49.57-58.85S174,181.28,174,213.78Z"/><path class="cls-4" d="M196.92,315.09l29.25,29.68,40-48.14h21.41l-40.67,80.23s-22,24.14-36.23,10.5-53.49-42.84-53.49-42.84l-6.68-26.14,9.36-29.77,26.74,5.81Z"/><path class="cls-5" d="M104.56,288.61c-3.34-5.81-43.17,2.91-45.95,5.08s-20.49,11.62-20.49,43.57V462.87l31.13,54.46h81.16l41.69-11.62-4.34-109.64,15.52-79.87s-10.62-28.32-20.63-28.32S104.56,288.61,104.56,288.61Z"/><path class="cls-4" d="M271.58,314.06l6.45,3.07a7.39,7.39,0,0,0,1.72.57c3.05.59,12.88,2.24,16.23-.19,4-2.89,0,1,2.39-5.31s-1.2-7.23-.4-10.61,2.39-4.83,1.2-7.24,0-5.31,2-10.62c.93-2.48.12-5.07-1-7.13a7.49,7.49,0,0,0-6.53-4h-7.21s-5.19,1,.4-18.82c3.69-13.08-.11-13.41-3.11-12.13a7.77,7.77,0,0,0-3.94,4c-.72,1.6-1.76,4-2.93,7.17-1.07,2.86-2,7.71-6.37,17.36-3,6.61-3,5.88-4.39,12.07s0,8.9.31,9.78a8.24,8.24,0,0,1,.29,3.05l-.46,6.16a14.44,14.44,0,0,0,.16,3.48l.43,2.46A9.16,9.16,0,0,0,271.58,314.06Z"/><path class="cls-4" d="M104.76,256.66s-1.92,35.58-7.69,44.29,22.42,8.72,22.42,8.72L145.11,306s-5.13-12.35-5.77-25.42a148.93,148.93,0,0,0-3.2-24Z"/><path class="cls-5" d="M84.76,290.28a1.77,1.77,0,0,0-1.7-2.19c-6.67.3-27.2,2.26-37.69,15.08C34.55,316.4,28,346.4,26.29,354.77a1.79,1.79,0,0,0,1.64,2.2h4l38.27.61a1.71,1.71,0,0,0,1.66-1.44Z"/><path class="cls-5" d="M149.63,291.15a1.87,1.87,0,0,1,1-2.66c6.41-2,26.47-7.13,40.15,1.47,14.09,8.86,29,35.1,33,42.47a1.87,1.87,0,0,1-.92,2.65l-3.78,1.35-36.16,13.64a1.61,1.61,0,0,1-2-.8Z"/><path class="cls-6" d="M96.69,149.78c9.5-4.69,6.91-7.51,18.14-9.38,3.4-.57,19.21,5.58,22.67,6.41.44.1,25.07,7.88,25.07,7.88a10,10,0,0,1,7.23,5.18c1.76,3.19,6.1,6.32,7.21,10.54,1.73,6.57-3.45,8.44-4.31,8.44s-22.36,2.07-28.58,2.66a9.22,9.22,0,0,1-3.26-.28c-5.42-1.46-22.71-6.13-23.44-6.13s-14.28-1.42-22.16-2.24a10,10,0,0,1-7.94-5.92h0c-2.46-5.33-.47-11.82,4.45-14.49Z"/><path class="cls-6" d="M89.11,156.77c-2-.21-17.32,6.06-17.32,6.06S64,182.69,62.87,187.5s-7,40.64-9.11,49.28-5.07,19.17-10,21.61.39,25.09.39,25.09L59,291.9s10.08-6.39,11.49-7.23S81.63,274,81.63,274L98.68,167.94S91.1,157,89.11,156.77Z"/></g></svg>
