<svg id="Layer_1" data-name="Layer 1" xmlns="http://www.w3.org/2000/svg" width="201.4mm" height="188.7mm" viewBox="0 0 570.91 534.89"><defs><style>.cls-1{fill:#1d1d1b;}.cls-2,.cls-4{fill:#fce4da;}.cls-2,.cls-3{opacity:0.6;}.cls-5{fill:#d9ebda;}.cls-6{fill:#fef6b5;}</style></defs><title>Artboard 19</title><rect class="cls-1" x="186.32" y="13.28" width="273.4" height="204.82" rx="29.91"/><rect class="cls-1" x="288.97" y="323.39" width="273.4" height="204.82" rx="29.91"/><rect class="cls-1" x="467.59" y="32.18" width="92.56" height="185.43" rx="12"/><path class="cls-2" d="M29.88,397.43a5.71,5.71,0,0,1,0-1.75,4.51,4.51,0,0,1,0-.9,5.62,5.62,0,0,1-.09-1.23,6,6,0,0,1,0-1.34,6.13,6.13,0,0,1,0-.86c0-.21,0-.41,0-.62a6.42,6.42,0,0,1,0-1.24,7.93,7.93,0,0,1,0-1.09,6.13,6.13,0,0,1,0-2l-.14-2.63s0-.08,0-.12,0-.29,0-.44h0a4.07,4.07,0,0,1-1.07.14,3.78,3.78,0,0,1-.77-.09l-.35,0a4.2,4.2,0,0,1-.72-.06,2.58,2.58,0,0,1-.29,0,5.65,5.65,0,0,1-.59,0,4.11,4.11,0,0,1-.8.07,4.57,4.57,0,0,1-1-.11l-.27,0a5.07,5.07,0,0,1-.7-.06l-.51,0h-.51a3.74,3.74,0,0,1-.68-.06,4.47,4.47,0,0,1-.92.1l-.37,0c-4.42,16.1-1.24,43.74,9.54,73.22,0-1.39-.29-44.38.41-56.12A5.81,5.81,0,0,1,29.88,397.43Z"/><g class="cls-3"><path class="cls-4" d="M165.44,240.1c0,12.94-6.19,23.73-12.15,33.44-9,14.69-20.95,25.41-37.43,25.41-16.18,0-28.41-9-37.46-23.23-6.26-9.86-12.11-22.32-12.11-35.62,0-32.51,22.19-58.86,49.57-58.86S165.44,207.59,165.44,240.1Z"/><path class="cls-4" d="M188.39,341.4l29.25,29.69L257.59,323H279l-40.66,80.23s-22,24.14-36.23,10.5-53.49-42.84-53.49-42.84l-6.69-26.14,9.37-29.77L178,320.74Z"/><path class="cls-5" d="M96,314.93c-3.34-5.81-43.17,2.9-45.95,5.08s-20.49,11.62-20.49,43.57V489.19l31.13,54.46h81.16L183.57,532l-4.34-109.64,15.52-79.87s-10.62-28.32-20.63-28.32S96,314.93,96,314.93Z"/><path class="cls-4" d="M263.05,340.38l6.45,3.07a7,7,0,0,0,1.71.56c3.05.59,12.88,2.25,16.24-.18,4-2.9,0,1,2.39-5.31s-1.2-7.24-.4-10.62,2.39-4.82,1.2-7.23,0-5.31,2-10.62c.93-2.48.12-5.08-1-7.13a7.5,7.5,0,0,0-6.53-4h-7.21s-5.19,1,.4-18.81c3.69-13.08-.11-13.41-3.11-12.13a7.73,7.73,0,0,0-3.94,4c-.72,1.6-1.76,4-2.93,7.17-1.07,2.86-2,7.71-6.37,17.36-3,6.6-3,5.88-4.39,12.06s0,8.91.31,9.79a8.21,8.21,0,0,1,.29,3l-.47,6.17a14.5,14.5,0,0,0,.17,3.48l.43,2.46A9.16,9.16,0,0,0,263.05,340.38Z"/><path class="cls-4" d="M96.23,283s-1.92,35.58-7.69,44.29S111,336,111,336l25.62-3.63s-5.13-12.34-5.77-25.41a148.93,148.93,0,0,0-3.2-24Z"/><path class="cls-5" d="M76.23,316.6a1.78,1.78,0,0,0-1.7-2.2c-6.67.3-27.2,2.27-37.7,15.09C26,342.71,19.43,372.72,17.76,381.08a1.78,1.78,0,0,0,1.64,2.2h4l38.27.6a1.69,1.69,0,0,0,1.66-1.43Z"/><path class="cls-5" d="M141.1,317.47a1.86,1.86,0,0,1,1-2.66c6.41-2,26.47-7.13,40.15,1.47,14.09,8.86,29,35.1,33,42.47a1.88,1.88,0,0,1-.92,2.65l-3.78,1.35L174.4,376.38a1.61,1.61,0,0,1-2-.79Z"/><path class="cls-6" d="M88.16,176.1c9.5-4.69,6.91-7.51,18.14-9.38,3.4-.57,19.21,5.58,22.66,6.41.45.1,25.08,7.88,25.08,7.88a9.91,9.91,0,0,1,7.23,5.18c1.76,3.18,6.1,6.32,7.21,10.54,1.73,6.57-3.45,8.44-4.31,8.44s-22.36,2.06-28.58,2.66a9.22,9.22,0,0,1-3.26-.28c-5.42-1.47-22.71-6.13-23.44-6.13S94.61,200,86.72,199.18a10,10,0,0,1-7.93-5.92h0c-2.46-5.34-.47-11.82,4.45-14.49Z"/><path class="cls-6" d="M80.58,183.09c-2-.21-17.32,6-17.32,6S55.44,209,54.34,213.82s-7,40.64-9.11,49.28-5.07,19.17-10,21.61.39,25.08.39,25.08l14.87,8.43S60.59,311.82,62,311s11.1-10.68,11.1-10.68l17.05-106S82.57,183.3,80.58,183.09Z"/></g></svg>
